<?xml version="1.0" encoding="UTF-8"?>
<svg xmlns="http://www.w3.org/2000/svg" xmlns:xlink="http://www.w3.org/1999/xlink" width="32px" height="32px" viewBox="0 0 32 32" version="1.1">
<g id="surface1">
<path style=" stroke:none;fill-rule:nonzero;fill:rgb(0%,0%,0%);fill-opacity:1;" d="M 26.125 14.875 L 17.125 14.875 L 17.125 5.875 C 17.125 5.257812 16.617188 4.75 16 4.75 C 15.382812 4.75 14.875 5.257812 14.875 5.875 L 14.875 14.875 L 5.875 14.875 C 5.257812 14.875 4.75 15.382812 4.75 16 C 4.75 16.617188 5.257812 17.125 5.875 17.125 L 14.875 17.125 L 14.875 26.125 C 14.875 26.742188 15.382812 27.25 16 27.25 C 16.617188 27.25 17.125 26.742188 17.125 26.125 L 17.125 17.125 L 26.125 17.125 C 26.742188 17.125 27.25 16.617188 27.25 16 C 27.25 15.382812 26.742188 14.875 26.125 14.875 Z M 26.125 14.875 "/>
</g>
</svg>
