<?xml version="1.0" standalone="no"?>
<!DOCTYPE svg PUBLIC "-//W3C//DTD SVG 20010904//EN"
 "http://www.w3.org/TR/2001/REC-SVG-20010904/DTD/svg10.dtd">
<svg version="1.0" xmlns="http://www.w3.org/2000/svg"
 width="128.000000pt" height="128.000000pt" viewBox="0 0 128.000000 128.000000"
 preserveAspectRatio="xMidYMid meet">

<g transform="translate(0.000000,128.000000) scale(0.100000,-0.100000)"
fill="#000000" stroke="none">
<path d="M383 868 c-404 -405 -382 -369 -349 -578 26 -164 45 -180 226 -200
196 -21 151 -51 598 394 337 335 384 386 396 426 20 70 5 111 -76 196 -38 40
-84 79 -102 88 -42 20 -96 21 -139 2 -18 -8 -158 -140 -312 -295 l-280 -281
-4 -85 c-2 -66 1 -91 13 -110 21 -32 85 -49 154 -40 l55 7 278 270 c153 149
281 279 285 290 7 22 -21 58 -45 58 -9 0 -135 -119 -281 -265 l-265 -265 -52
0 -53 0 0 48 0 47 273 273 c231 230 277 272 302 272 42 0 165 -124 165 -166 0
-25 -51 -80 -372 -401 -263 -262 -382 -374 -403 -379 -42 -10 -225 13 -245 31
-20 18 -46 187 -36 237 5 27 71 98 341 368 271 271 335 340 335 361 0 27 -15
39 -48 39 -9 0 -171 -154 -359 -342z"/>
</g>
</svg>
