<?xml version="1.0" standalone="no"?>
<!DOCTYPE svg PUBLIC "-//W3C//DTD SVG 20010904//EN" "http://www.w3.org/TR/2001/REC-SVG-20010904/DTD/svg10.dtd">
<svg version="1.0" xmlns="http://www.w3.org/2000/svg" width="512.000000pt" height="512.000000pt"
    viewBox="0 0 512.000000 512.000000" preserveAspectRatio="xMidYMid meet">

    <g transform="translate(0.000000,512.000000) scale(0.100000,-0.100000)" fill="#013E62" stroke="none">
        <path d="M1615 3996 l-940 -713 -3 -261 -2 -262 1890 0 1890 0 1 78 c3 353 0
435 -18 453 -21 20 -1871 1419 -1875 1418 -2 0 -426 -321 -943 -713z m994 290
c33 -18 51 -54 51 -105 l0 -39 69 -21 c94 -29 141 -72 141 -130 0 -34 -6 -49
-29 -72 -37 -37 -83 -38 -147 -4 -52 27 -148 34 -201 14 -40 -15 -83 -59 -83
-85 0 -40 40 -63 201 -114 186 -59 232 -89 276 -177 76 -156 -5 -339 -178
-400 l-49 -18 0 -52 c0 -44 -4 -56 -31 -82 -34 -35 -73 -40 -118 -17 -33 18
-51 54 -51 106 0 38 0 39 -56 55 -72 21 -132 59 -144 91 -18 47 -12 84 19 115
37 37 83 38 147 4 52 -27 148 -34 201 -14 44 16 83 59 83 90 0 46 -44 72 -190
113 -160 45 -193 61 -247 119 -135 146 -63 383 138 454 l49 18 0 48 c0 42 5
54 34 83 37 37 70 43 115 20z" />
        <path d="M1080 1790 l0 -770 253 2 252 3 3 768 2 767 -255 0 -255 0 0 -770z" />
        <path d="M2302 1793 l3 -768 255 0 255 0 3 768 2 767 -260 0 -260 0 2 -767z" />
        <path d="M3532 1793 l3 -768 255 0 255 0 3 768 2 767 -260 0 -260 0 2 -767z" />
        <path d="M670 615 l0 -205 1890 0 1890 0 1 33 c1 50 1 340 0 360 -1 16 -98 17
-1891 17 l-1890 0 0 -205z" />
    </g>
</svg>