<?xml version="1.0" standalone="no"?>
<!DOCTYPE svg PUBLIC "-//W3C//DTD SVG 20010904//EN"
 "http://www.w3.org/TR/2001/REC-SVG-20010904/DTD/svg10.dtd">
<svg version="1.0" xmlns="http://www.w3.org/2000/svg"
 width="758.000000pt" height="980.000000pt" viewBox="0 0 758.000000 980.000000"
 preserveAspectRatio="xMidYMid meet">

<g transform="translate(0.000000,980.000000) scale(0.100000,-0.100000)"
fill="#000000" stroke="none">
<path d="M3335 9790 c-1336 -75 -2489 -423 -2991 -902 -52 -50 -117 -120 -143
-156 -70 -93 -138 -227 -162 -318 -41 -155 -35 -591 11 -768 76 -299 370 -575
862 -811 404 -193 914 -343 1492 -440 431 -72 698 -89 1396 -90 694 0 940 16
1375 90 1230 209 2113 647 2326 1154 50 118 62 224 63 521 0 241 -2 272 -21
341 -89 315 -350 577 -803 804 -593 297 -1416 493 -2375 565 -187 14 -843 20
-1030 10z"/>
<path d="M11 6775 c0 -518 15 -1128 29 -1215 20 -118 96 -250 221 -384 361
-387 1094 -692 2100 -876 412 -75 569 -83 1569 -77 864 5 891 7 1239 67 850
148 1538 398 1950 707 228 171 392 390 421 563 15 88 29 693 29 1195 l0 410
-44 -92 c-60 -127 -105 -193 -205 -297 -433 -453 -1433 -805 -2643 -931 -514
-53 -1646 -32 -2132 41 -1006 149 -1845 477 -2251 879 -106 106 -157 176 -226
315 l-57 115 0 -420z m7101 -810 c55 -36 81 -94 80 -176 -1 -128 -70 -229
-154 -229 -36 0 -47 6 -84 44 -80 84 -94 196 -36 300 55 96 113 115 194 61z"/>
<path d="M16 4256 l7 -829 48 -84 c74 -128 106 -170 204 -272 400 -414 1225
-739 2290 -900 313 -47 418 -53 1088 -58 835 -7 1065 4 1472 73 875 147 1543
385 1965 702 105 79 283 254 341 336 123 173 140 312 138 1126 -1 523 -6 658
-22 663 -5 1 -21 -27 -36 -63 -258 -613 -1516 -1111 -3101 -1230 -243 -18
-736 -24 -975 -11 -1468 78 -2616 428 -3138 957 -100 102 -152 173 -227 309
l-61 110 7 -829z m7104 -389 c43 -21 74 -99 74 -186 -1 -104 -26 -160 -90
-201 -59 -37 -81 -38 -126 -2 -53 41 -78 83 -90 154 -16 97 17 187 84 228 38
23 110 26 148 7z"/>
<path d="M15 2176 l6 -828 66 -115 c36 -63 85 -140 109 -172 251 -334 879
-656 1659 -850 368 -91 817 -164 1190 -193 215 -16 1275 -16 1490 0 798 61
1632 271 2198 553 353 176 554 336 694 552 132 202 143 297 142 1232 l0 620
-53 -110 c-65 -134 -130 -227 -227 -324 -368 -369 -1102 -660 -2081 -825 -335
-57 -672 -81 -1273 -92 -356 -6 -807 5 -1045 26 -176 16 -513 67 -730 110
-863 171 -1521 458 -1873 817 -101 102 -156 181 -224 318 l-54 110 6 -829z
m7074 -390 c37 -20 89 -79 98 -114 14 -47 8 -145 -10 -193 -9 -25 -33 -61 -53
-80 -84 -81 -203 -18 -235 127 -22 100 20 203 105 255 37 23 58 24 95 5z"/>
</g>
</svg>
