<?xml version="1.0" standalone="no"?>
<!DOCTYPE svg PUBLIC "-//W3C//DTD SVG 20010904//EN"
 "http://www.w3.org/TR/2001/REC-SVG-20010904/DTD/svg10.dtd">
<svg version="1.0" xmlns="http://www.w3.org/2000/svg"
 width="512.000000pt" height="512.000000pt" viewBox="0 0 512.000000 512.000000"
 preserveAspectRatio="xMidYMid meet">

<g transform="translate(0.000000,512.000000) scale(0.100000,-0.100000)"
fill="#000000" stroke="none">
<path d="M3253 3437 l-503 -271 0 -544 c0 -513 -1 -543 -17 -538 -10 3 -288
87 -618 186 l-600 179 -637 -326 -638 -327 0 -877 0 -876 263 -6 c144 -4 1186
-7 2315 -7 l2052 0 0 1493 0 1492 -522 325 c-287 179 -538 334 -557 346 l-36
21 -502 -270z m357 -210 l0 -133 -181 -82 c-99 -45 -185 -82 -190 -82 -5 0 -9
55 -9 123 l0 122 183 92 c100 51 185 92 190 92 4 1 7 -59 7 -132z m750 -258
c0 -80 -4 -119 -11 -119 -14 0 -428 219 -451 238 -15 13 -18 33 -18 137 0 67
2 124 5 127 3 3 111 -55 240 -130 l235 -135 0 -118z m-1210 38 l0 -123 -158
-72 c-86 -40 -160 -72 -165 -72 -4 0 -7 52 -7 115 l0 115 158 79 c86 44 160
80 165 80 4 1 7 -54 7 -122z m1480 -76 l185 -107 3 -112 c1 -62 -1 -112 -5
-112 -4 1 -93 47 -198 103 l-190 102 -3 118 c-2 90 0 117 10 117 7 -1 96 -49
198 -109z m-1020 -104 l0 -134 -183 -71 c-101 -40 -186 -72 -190 -72 -4 0 -6
56 -5 126 l3 125 180 79 c99 44 183 79 188 80 4 0 7 -60 7 -133z m748 -227 c1
-66 -1 -120 -6 -120 -12 0 -444 200 -459 212 -14 11 -19 248 -7 261 4 3 111
-47 238 -113 l231 -119 3 -121z m-1208 36 l0 -124 -117 -47 c-65 -26 -140 -56
-166 -66 l-48 -19 3 121 3 122 155 68 c85 37 158 68 163 68 4 1 7 -55 7 -123z
m1481 -52 l189 -97 0 -108 c0 -70 -4 -109 -11 -109 -13 0 -359 159 -376 172
-17 14 -18 238 -2 238 6 0 96 -43 200 -96z m-1021 -156 l0 -133 -176 -60 c-97
-33 -183 -61 -191 -63 -11 -3 -13 19 -11 124 l3 127 175 68 c96 37 181 68 188
68 9 1 12 -32 12 -131z m528 23 c90 -39 177 -78 193 -86 l29 -16 0 -119 c0
-66 -2 -120 -5 -120 -11 0 -451 174 -462 183 -13 10 -19 247 -7 260 3 3 25 -3
47 -13 23 -10 115 -50 205 -89z m-990 -188 l-3 -126 -140 -47 c-187 -63 -185
-63 -185 73 l0 104 158 61 c86 33 161 60 165 61 4 1 6 -56 5 -126z m1482 -27
l185 -81 3 -113 c1 -61 0 -112 -3 -112 -13 0 -371 142 -382 152 -9 7 -13 45
-13 124 0 85 3 114 13 113 6 0 95 -37 197 -83z m-2087 -302 l807 -218 0 -108
c0 -81 -3 -106 -12 -103 -7 2 -368 88 -803 190 -434 102 -800 189 -812 192
-22 5 -23 8 -23 140 0 124 1 135 18 131 9 -3 380 -103 825 -224z m1067 92 l0
-134 -66 -16 -65 -16 -125 37 -124 37 0 53 c0 28 5 55 10 58 14 9 341 113 358
114 9 1 12 -32 12 -133z m593 19 l157 -58 0 -124 c0 -67 -3 -123 -7 -122 -5 0
-111 35 -238 77 l-230 77 -3 119 c-1 66 0 126 2 133 4 10 24 6 83 -16 43 -16
149 -55 236 -86z m-2855 -47 l-3 -131 -504 -204 c-278 -112 -508 -203 -513
-203 -5 0 -7 46 -6 101 l3 101 505 234 c278 128 509 233 513 234 4 0 6 -59 5
-132z m1802 -14 c0 -20 -4 -25 -16 -20 -9 3 -27 9 -40 12 -44 11 -24 28 39 33
12 1 17 -6 17 -25z m1493 -101 l177 -66 0 -108 c0 -89 -3 -109 -15 -109 -8 0
-98 27 -200 60 l-185 61 0 113 c0 62 3 116 7 120 4 3 14 4 22 0 9 -3 96 -35
194 -71z m-2130 -298 c441 -97 810 -178 820 -181 15 -5 17 -19 17 -110 0 -57
-4 -104 -8 -104 -5 0 -361 65 -793 145 -431 80 -799 148 -816 151 l-33 6 0
134 c0 74 3 134 6 134 3 0 366 -79 807 -175z m1097 41 l0 -134 -37 -7 c-21 -3
-48 -9 -61 -12 l-23 -5 3 133 3 133 40 12 c79 24 75 30 75 -120z m515 65 l230
-68 3 -122 c2 -104 0 -121 -13 -121 -13 0 -273 63 -417 101 l-38 10 0 134 c0
74 1 135 3 135 1 0 106 -31 232 -69z m-2775 -85 l0 -134 -32 -11 c-690 -218
-988 -311 -992 -311 -3 0 -6 45 -6 99 0 69 4 102 13 108 13 8 997 380 1010
382 4 1 7 -59 7 -133z m3275 -64 l190 -58 3 -112 c1 -62 -1 -112 -5 -112 -4 0
-93 22 -198 48 l-190 48 -3 109 c-2 96 1 136 10 135 2 0 89 -26 193 -58z
m-2092 -319 l817 -137 0 -109 0 -109 -27 6 c-16 3 -383 53 -817 111 -434 58
-793 108 -797 111 -11 6 -12 264 -1 264 4 0 375 -62 825 -137z m1077 3 l0
-133 -46 -7 c-26 -3 -53 -6 -60 -6 -11 0 -14 27 -14 130 l0 130 28 6 c15 3 32
7 37 9 6 2 20 4 33 4 22 1 22 0 22 -133z m520 81 l225 -52 3 -123 c2 -86 -1
-122 -9 -122 -20 0 -452 81 -461 86 -4 3 -8 63 -8 135 0 97 3 129 13 129 6 -1
113 -24 237 -53z m-2780 -96 c0 -115 -2 -130 -17 -135 -42 -12 -987 -226
-1000 -226 -11 0 -13 21 -11 101 l3 102 495 142 c272 79 503 143 513 144 15 1
17 -11 17 -128z m3308 -26 c84 -19 155 -35 158 -35 6 0 5 -215 -1 -222 -3 -2
-91 12 -197 31 l-193 36 -3 109 c-1 61 -1 115 2 122 3 9 15 10 43 4 21 -5 107
-25 191 -45z m-2156 -315 c425 -49 790 -93 811 -96 l37 -6 0 -105 0 -105 -52
6 c-29 3 -386 33 -793 66 -407 33 -755 63 -772 66 l-33 5 0 129 c0 107 3 130
15 130 8 0 362 -40 787 -90z m1108 -45 l0 -135 -37 0 c-21 0 -48 -3 -60 -6
l-23 -6 0 135 0 136 28 4 c15 2 42 5 60 6 l32 1 0 -135z m516 100 c121 -19
222 -35 227 -35 4 0 7 -57 7 -126 l0 -126 -37 6 c-21 3 -123 15 -228 26 -104
11 -196 23 -202 25 -20 7 -18 265 1 265 8 0 112 -16 232 -35z m-2776 -108 l0
-133 -487 -68 c-269 -37 -500 -70 -515 -73 l-28 -5 0 100 c0 59 4 103 10 107
10 6 978 202 1008 204 9 1 12 -32 12 -132z m3360 15 l105 -18 3 -112 c2 -102
1 -112 -15 -112 -28 0 -357 40 -370 45 -10 3 -13 36 -13 118 0 63 2 116 5 119
5 5 69 -4 285 -40z m-3360 -407 c0 -122 -2 -135 -17 -135 -10 0 -216 -11 -458
-25 -242 -14 -466 -25 -497 -25 l-58 0 0 100 c0 55 1 100 3 101 1 0 229 26
507 59 278 32 508 58 513 59 4 1 7 -60 7 -134z m780 111 c201 -14 557 -37 793
-53 l427 -27 0 -109 0 -109 -102 6 c-57 3 -422 15 -813 27 -390 11 -716 22
-722 25 -10 2 -13 38 -13 134 l0 130 33 0 c17 0 196 -11 397 -24z m1470 -111
l0 -135 -55 0 -55 0 0 135 0 135 55 0 55 0 0 -135z m575 107 l180 -17 0 -120
0 -120 -25 2 c-14 1 -118 5 -232 8 l-208 7 0 133 0 134 53 -6 c28 -3 133 -12
232 -21z m515 -45 l125 -12 0 -109 0 -110 -110 3 c-60 2 -148 6 -195 9 l-85 7
-3 104 c-1 58 0 111 2 118 6 14 -2 14 266 -10z"/>
</g>
</svg>
