<?xml version="1.0" standalone="no"?>
<!DOCTYPE svg PUBLIC "-//W3C//DTD SVG 20010904//EN"
 "http://www.w3.org/TR/2001/REC-SVG-20010904/DTD/svg10.dtd">
<svg version="1.0" xmlns="http://www.w3.org/2000/svg"
 width="130.000000pt" height="130.000000pt" viewBox="0 0 130.000000 130.000000"
 preserveAspectRatio="xMidYMid meet">

<g transform="translate(0.000000,130.000000) scale(0.100000,-0.100000)"
fill="#000000" stroke="none">
<path d="M196 1284 c-14 -13 -16 -49 -16 -235 l0 -219 -33 0 c-64 0 -67 -10
-67 -256 0 -120 4 -224 8 -230 11 -16 48 -34 71 -34 20 0 21 -5 21 -138 0
-122 2 -141 18 -155 17 -15 63 -17 450 -17 419 0 433 1 452 20 11 11 20 27 20
35 0 8 19 34 43 58 24 24 57 70 73 103 26 53 29 69 29 159 0 84 -4 107 -23
144 -19 39 -22 60 -22 158 0 100 -2 115 -20 133 -11 11 -33 20 -50 20 l-30 0
0 83 0 82 -96 110 c-53 61 -114 129 -136 153 l-39 42 -319 0 c-276 0 -321 -2
-334 -16z m624 -174 l0 -139 123 -3 122 -3 3 -68 3 -67 -423 2 -423 3 -3 195
c-1 107 0 200 2 207 4 10 70 13 301 13 l295 0 0 -140z m225 -449 c115 -57 179
-161 180 -291 0 -94 -32 -166 -103 -232 -159 -149 -415 -100 -513 97 -20 42
-24 65 -24 140 0 78 4 97 27 140 28 54 96 123 147 149 86 45 191 44 286 -3z
m-496 -393 c18 -62 54 -119 100 -161 23 -20 41 -39 41 -42 0 -3 -105 -4 -232
-3 l-233 3 -3 123 -3 122 159 0 159 0 12 -42z"/>
<path d="M784 481 l75 -99 -75 -101 -74 -101 34 0 c30 0 39 8 90 75 31 41 58
75 60 75 2 0 28 -34 58 -75 52 -73 54 -75 96 -75 23 0 42 1 42 3 0 2 -31 46
-70 97 -38 51 -70 97 -70 102 0 4 30 51 66 103 l66 95 -34 0 c-31 0 -39 -7
-87 -76 l-53 -76 -56 76 c-55 74 -57 76 -99 76 l-44 0 75 -99z"/>
</g>
</svg>
