<?xml version="1.0" standalone="no"?>
<!DOCTYPE svg PUBLIC "-//W3C//DTD SVG 20010904//EN"
 "http://www.w3.org/TR/2001/REC-SVG-20010904/DTD/svg10.dtd">
<svg version="1.0" xmlns="http://www.w3.org/2000/svg"
 width="1739.000000pt" height="477.000000pt" viewBox="0 0 1739.000000 477.000000"
 preserveAspectRatio="xMidYMid meet">

<g transform="translate(0.000000,477.000000) scale(0.100000,-0.100000)"
fill="#000000" stroke="none">
<path d="M14254 4485 c-236 -51 -396 -267 -381 -515 10 -171 56 -246 320 -516
l196 -201 -84 -83 -84 -83 -203 198 c-112 109 -226 213 -254 232 -157 105
-341 116 -512 32 -180 -88 -272 -238 -272 -445 0 -189 100 -339 270 -406 71
-28 194 -30 265 -5 177 61 270 262 192 413 -42 83 -112 132 -202 141 -99 10
-167 -38 -150 -106 12 -49 43 -71 101 -71 46 0 55 -4 79 -32 30 -36 29 -73 -3
-118 -24 -34 -98 -70 -142 -70 -82 0 -193 83 -221 166 -7 22 -13 64 -13 94 2
177 141 312 324 314 53 0 78 -6 134 -32 61 -29 95 -58 273 -235 l203 -201
-247 -248 -248 -248 640 0 640 0 -118 118 -117 117 72 73 73 72 117 -117 118
-118 0 640 0 640 -250 -250 -251 -250 -203 205 c-241 244 -261 275 -261 405 0
93 27 164 89 233 70 77 211 112 314 78 56 -19 123 -83 148 -141 33 -80 9 -180
-55 -222 -72 -49 -146 -14 -143 68 3 69 -29 108 -88 108 -64 0 -90 -37 -90
-129 0 -45 6 -73 25 -109 105 -207 407 -180 513 47 24 50 27 69 27 157 0 91
-3 106 -31 165 -93 195 -286 284 -510 235z m509 -1283 l67 -68 -73 -72 -73
-72 -69 70 -69 70 69 70 c38 39 72 70 75 70 3 0 36 -30 73 -68z m-350 -484
l-73 -73 -70 70 -70 69 72 73 73 73 70 -70 70 -70 -72 -72z"/>
<path d="M15730 4486 c-30 -6 -76 -22 -101 -34 -66 -32 -153 -128 -192 -209
-28 -61 -31 -78 -31 -158 0 -76 4 -99 26 -146 33 -73 84 -128 150 -165 46 -25
63 -29 133 -29 90 0 131 15 185 68 54 52 83 127 78 199 -4 51 -9 65 -32 85
-37 31 -89 31 -121 -2 -20 -19 -25 -34 -25 -75 0 -154 -192 -121 -216 37 -12
83 41 182 125 231 40 24 57 27 131 27 140 0 223 -54 283 -184 39 -83 41 -166
7 -256 -21 -54 -44 -81 -234 -273 l-210 -212 -248 247 -248 248 0 -640 0 -640
118 118 117 117 73 -72 72 -73 -116 -116 -115 -116 428 -6 c235 -4 525 -7 643
-7 l215 0 -253 253 -253 253 213 210 c191 189 219 213 273 234 89 34 174 32
257 -7 76 -36 132 -89 162 -152 30 -66 30 -199 -1 -258 -78 -146 -297 -176
-357 -49 -23 48 -20 83 9 111 19 20 34 25 75 25 64 0 100 30 100 84 0 57 -35
88 -104 94 -106 9 -212 -57 -256 -160 -18 -42 -21 -65 -18 -119 9 -117 79
-213 197 -268 48 -22 69 -26 147 -26 85 1 97 3 165 37 185 91 272 261 241 470
-32 223 -193 381 -426 418 -98 15 -193 -1 -296 -52 -79 -38 -100 -56 -298
-252 l-213 -210 -86 87 -87 86 210 213 c196 198 214 219 252 298 68 139 76
271 23 411 -88 231 -327 358 -571 305z m-142 -1423 l-73 -73 -72 72 -73 73 72
72 73 73 72 -72 73 -73 -72 -72z m345 -345 l-73 -73 -70 70 -70 69 72 73 73
73 70 -70 70 -70 -72 -72z"/>
<path d="M680 3374 c-196 -53 -351 -179 -441 -359 -66 -134 -69 -160 -69 -685
0 -516 3 -549 64 -675 67 -141 176 -253 310 -319 136 -67 114 -66 1009 -66
l807 0 0 165 0 165 -802 2 -803 3 -56 28 c-69 33 -132 99 -167 175 l-27 57 0
465 0 465 26 55 c48 102 118 164 219 194 47 14 151 16 832 16 l778 0 0 165 0
165 -812 -1 c-683 0 -822 -3 -868 -15z"/>
<path d="M3233 3370 c-182 -48 -342 -178 -424 -345 -77 -157 -73 -108 -77
-982 l-3 -783 170 0 171 0 0 355 0 355 910 0 910 0 0 -355 0 -355 165 0 165 0
0 773 c0 855 0 846 -65 979 -67 139 -180 251 -319 318 -126 60 -127 60 -861
59 -622 0 -675 -1 -742 -19z m1459 -343 c82 -40 152 -120 178 -204 18 -57 20
-92 20 -294 l0 -229 -910 0 -910 0 0 243 c0 229 2 245 23 298 43 103 107 165
210 201 48 16 96 17 692 15 l640 -2 57 -28z"/>
<path d="M6166 3374 c-185 -45 -351 -179 -441 -356 -64 -128 -66 -154 -63
-718 3 -491 4 -507 25 -570 69 -200 241 -370 438 -433 70 -22 74 -22 805 -22
l735 0 65 23 c220 79 383 256 440 478 19 72 20 112 20 554 0 438 -2 483 -19
552 -62 241 -258 437 -492 493 -92 21 -1423 21 -1513 -1z m1457 -334 c88 -27
162 -94 203 -182 l29 -63 3 -444 c3 -480 1 -506 -52 -590 -32 -50 -100 -109
-155 -135 -46 -21 -53 -21 -726 -21 l-680 0 -55 26 c-70 33 -136 99 -169 169
l-26 55 0 475 c0 466 0 476 22 522 25 54 90 128 140 159 76 47 81 48 759 48
617 1 644 0 707 -19z"/>
<path d="M10129 3376 c-210 -58 -379 -229 -435 -439 -19 -70 -18 -238 1 -311
26 -98 82 -194 160 -272 76 -76 144 -119 245 -156 64 -23 70 -23 640 -28 569
-5 575 -5 616 -27 99 -53 153 -133 162 -238 7 -90 -17 -156 -82 -220 -89 -90
-39 -85 -923 -85 l-773 0 0 -170 0 -171 803 3 802 3 85 31 c47 16 111 47 142
68 122 81 227 226 263 363 20 75 19 242 0 317 -51 194 -224 374 -420 437 -30
10 -186 14 -615 18 -634 7 -605 4 -690 71 -54 43 -100 137 -100 206 0 116 73
224 178 264 50 19 80 20 807 20 l755 0 0 165 0 165 -787 -1 c-604 -1 -799 -4
-834 -13z"/>
<path d="M8550 2230 l0 -170 425 0 425 0 0 170 0 170 -425 0 -425 0 0 -170z"/>
<path d="M13835 2040 l250 -250 -200 -200 c-240 -241 -277 -265 -410 -265 -67
0 -89 4 -136 27 -103 51 -158 122 -178 231 -21 115 20 214 113 271 105 65 235
38 271 -57 29 -75 -5 -123 -86 -119 -67 3 -104 -28 -104 -88 0 -34 6 -47 28
-66 24 -20 39 -24 95 -24 78 0 132 21 180 70 55 54 75 105 75 186 0 89 -32
162 -99 224 -75 69 -121 85 -244 85 -99 0 -110 -2 -171 -32 -81 -40 -170 -130
-206 -210 -21 -45 -27 -77 -31 -154 -5 -112 7 -177 50 -263 99 -198 352 -308
573 -250 117 30 175 73 400 295 l211 209 87 -88 87 -87 -186 -185 c-266 -264
-321 -350 -331 -515 -7 -103 9 -176 58 -274 46 -92 117 -165 205 -209 87 -43
151 -55 265 -50 84 4 107 9 161 36 81 40 160 119 201 202 30 60 32 72 32 170
0 123 -16 169 -85 244 -58 63 -133 98 -212 99 -82 1 -131 -16 -186 -67 -60
-55 -82 -104 -82 -188 0 -56 4 -71 24 -95 19 -22 32 -28 66 -28 60 0 91 37 88
104 -4 81 44 115 119 86 95 -36 122 -166 57 -271 -57 -94 -161 -136 -274 -113
-108 22 -178 77 -228 178 -23 47 -27 69 -27 136 0 133 24 170 265 410 l200
200 250 -250 250 -250 0 645 0 645 -120 -120 -120 -120 -72 73 -73 72 120 120
120 120 -645 0 -645 0 250 -250z m578 -152 l-73 -73 -70 70 -70 69 72 73 73
73 70 -70 70 -70 -72 -72z m352 -208 l69 -70 -69 -70 -69 -70 -73 72 -73 72
67 68 c37 38 70 68 73 68 3 0 37 -31 75 -70z"/>
<path d="M15445 2170 l120 -120 -73 -72 -72 -73 -113 113 -114 113 -6 -452
c-4 -249 -7 -536 -7 -638 l0 -186 253 253 253 252 201 -203 c177 -178 206
-212 235 -273 26 -56 32 -81 32 -134 -2 -183 -137 -322 -314 -324 -72 0 -124
18 -172 62 -80 72 -107 174 -66 251 26 51 59 78 104 87 24 4 37 0 62 -21 29
-24 32 -32 32 -80 0 -47 4 -56 31 -79 35 -30 58 -32 99 -11 37 19 54 71 47
140 -22 214 -267 300 -451 160 -79 -60 -134 -197 -122 -306 17 -165 134 -312
285 -359 120 -38 283 -22 395 38 156 83 271 307 250 485 -9 79 -41 169 -83
234 -21 32 -127 149 -236 261 l-198 203 83 84 83 84 201 -196 c267 -261 344
-309 511 -320 100 -7 175 8 266 54 142 71 235 201 261 365 32 207 -59 385
-242 472 -59 28 -74 31 -165 31 -87 0 -107 -3 -156 -26 -112 -53 -178 -148
-187 -268 -3 -53 0 -77 15 -112 47 -106 128 -159 241 -159 61 0 72 3 96 26 65
66 2 173 -88 150 -37 -9 -86 36 -86 78 0 74 75 136 163 136 62 0 105 -19 161
-70 57 -53 81 -117 74 -204 -10 -124 -71 -211 -187 -265 -46 -21 -70 -26 -136
-26 -130 0 -161 20 -405 261 l-205 203 250 251 250 250 -645 0 -645 0 120
-120z m498 -138 l67 -68 -75 -74 -75 -74 -70 69 -70 69 72 73 c40 40 75 73 78
73 3 0 36 -30 73 -68z m-350 -350 l67 -68 -73 -72 -73 -72 -69 70 -69 70 69
70 c38 39 72 70 75 70 3 0 36 -30 73 -68z"/>
</g>
</svg>
