<?xml version="1.0" standalone="no"?>
<!DOCTYPE svg PUBLIC "-//W3C//DTD SVG 20010904//EN"
 "http://www.w3.org/TR/2001/REC-SVG-20010904/DTD/svg10.dtd">
<svg version="1.0" xmlns="http://www.w3.org/2000/svg"
 width="194.000000pt" height="194.000000pt" viewBox="0 0 194.000000 194.000000"
 preserveAspectRatio="xMidYMid meet">

<g transform="translate(0.000000,194.000000) scale(0.100000,-0.100000)"
fill="#000000" stroke="none">
<path d="M296 1919 l-26 -20 -2 -327 -3 -327 -40 -3 c-52 -3 -83 -20 -101 -54
-21 -40 -21 -626 0 -666 18 -34 49 -51 101 -54 l40 -3 3 -212 2 -212 27 -20
c25 -21 35 -21 665 -21 690 0 688 0 702 52 3 13 6 112 6 221 l0 197 46 0 c37
0 51 5 75 29 l29 29 0 327 0 327 -29 29 c-24 24 -38 29 -75 29 l-46 0 0 123 0
124 -161 184 c-89 101 -179 203 -200 227 l-38 42 -474 0 c-464 0 -475 0 -501
-21z m924 -252 c0 -145 3 -206 12 -215 8 -8 65 -12 190 -12 l179 0 -3 -97 -3
-98 -627 -3 -628 -2 0 315 0 315 440 0 440 0 0 -203z m-589 -559 c49 -27 79
-73 82 -124 l2 -39 -61 -3 -62 -3 -6 35 c-7 39 -19 50 -60 60 -38 9 -81 -9
-95 -41 -17 -37 -25 -140 -16 -208 9 -74 37 -105 94 -105 45 0 66 17 76 60 6
30 8 30 71 30 70 0 69 0 53 -63 -18 -72 -61 -109 -146 -127 -123 -27 -237 36
-269 148 -23 79 -15 241 14 299 23 44 68 83 117 102 47 17 158 6 206 -21z
m460 -5 c35 -18 64 -43 84 -71 28 -41 30 -50 34 -158 3 -107 1 -118 -23 -168
-28 -57 -78 -99 -137 -116 -19 -6 -87 -10 -151 -10 l-118 0 0 275 0 275 128 0
c120 0 132 -2 183 -27z m504 1 c57 -29 85 -75 85 -137 0 -44 -4 -54 -38 -87
l-37 -37 28 -16 c35 -21 57 -72 57 -137 0 -28 7 -64 15 -80 l16 -30 -70 0
c-45 0 -73 4 -78 13 -4 6 -10 45 -14 86 -7 91 -25 111 -100 111 l-49 0 0 -105
0 -105 -65 0 -65 0 0 276 0 276 138 -4 c115 -2 143 -6 177 -24z m0 -824 l0
-185 -627 -3 -628 -2 0 190 0 190 628 -2 627 -3 0 -185z"/>
<path d="M910 855 l0 -175 43 0 c93 0 127 48 127 178 0 126 -32 172 -122 172
l-48 0 0 -175z"/>
<path d="M1410 960 l0 -70 39 0 c57 0 89 15 97 45 15 61 -20 95 -96 95 l-40 0
0 -70z"/>
</g>
</svg>
