<?xml version="1.0" encoding="UTF-8"?>
<svg xmlns="http://www.w3.org/2000/svg" xmlns:xlink="http://www.w3.org/1999/xlink" width="32px" height="32px" viewBox="0 0 32 32" version="1.1">
<g id="surface1">
<path style=" stroke:none;fill-rule:nonzero;fill:rgb(0%,0%,0%);fill-opacity:1;" d="M 29.835938 3.4375 C 29.726562 3.476562 29.511719 3.59375 29.355469 3.707031 C 29.1875 3.820312 25.3125 8.199219 20.085938 14.179688 C 11.554688 23.9375 11.101562 24.449219 11.007812 24.332031 C 10.949219 24.269531 9.054688 22.242188 6.800781 19.832031 C 2.242188 14.976562 2.476562 15.1875 1.675781 15.1875 C 0.429688 15.1875 -0.375 16.511719 0.199219 17.613281 C 0.28125 17.769531 2.394531 20.070312 5.230469 23.085938 C 10.492188 28.699219 10.34375 28.554688 11.039062 28.613281 C 11.519531 28.648438 11.9375 28.488281 12.34375 28.101562 C 12.894531 27.582031 31.6875 6.050781 31.820312 5.800781 C 32.351562 4.757812 31.601562 3.46875 30.417969 3.398438 C 30.207031 3.386719 29.945312 3.40625 29.835938 3.4375 Z M 29.835938 3.4375 "/>
</g>
</svg>
