<?xml version="1.0" standalone="no"?>
<!DOCTYPE svg PUBLIC "-//W3C//DTD SVG 20010904//EN"
 "http://www.w3.org/TR/2001/REC-SVG-20010904/DTD/svg10.dtd">
<svg version="1.0" xmlns="http://www.w3.org/2000/svg"
 width="512.000000pt" height="512.000000pt" viewBox="0 0 512.000000 512.000000"
 preserveAspectRatio="xMidYMid meet">

<g transform="translate(0.000000,512.000000) scale(0.100000,-0.100000)"
fill="#000000" stroke="none">
<path d="M4774 4570 c-18 -6 -52 -25 -77 -43 -27 -18 -647 -719 -1483 -1676
-1365 -1561 -1438 -1643 -1453 -1624 -9 10 -312 334 -673 720 -729 777 -692
743 -820 743 -199 0 -328 -212 -236 -388 13 -25 351 -393 805 -876 842 -898
818 -875 929 -884 77 -6 144 20 209 82 88 83 3095 3528 3116 3568 85 167 -35
373 -224 384 -34 2 -76 -1 -93 -6z"/>
</g>
</svg>
