<?xml version="1.0" standalone="no"?>
<!DOCTYPE svg PUBLIC "-//W3C//DTD SVG 20010904//EN" "http://www.w3.org/TR/2001/REC-SVG-20010904/DTD/svg10.dtd">
<svg version="1.0" xmlns="http://www.w3.org/2000/svg" width="512.000000pt" height="512.000000pt"
    viewBox="0 0 512.000000 512.000000" preserveAspectRatio="xMidYMid meet">

    <g transform="translate(0.000000,512.000000) scale(0.100000,-0.100000)" fill="#00778F" stroke="none">
        <path d="M2112 4717 c-47 -18 -97 -60 -115 -99 -11 -23 -19 -86 -26 -193 -19
-294 -62 -425 -175 -535 -96 -93 -67 -80 -1021 -481 -357 -150 -666 -283 -686
-295 -40 -25 -89 -110 -89 -153 0 -82 50 -156 127 -189 27 -11 615 -195 1308
-408 1120 -346 1267 -389 1325 -388 62 0 77 5 315 118 313 148 640 297 950
433 379 166 465 214 590 325 102 90 140 140 195 253 80 166 102 299 104 630 1
211 0 222 -22 262 -12 24 -39 54 -60 67 -28 19 -342 100 -1322 341 -707 174
-1303 318 -1325 320 -22 3 -55 -1 -73 -8z m1315 -697 c582 -144 1067 -263
1077 -267 18 -5 19 -14 13 -147 -12 -293 -67 -412 -241 -521 -87 -53 -153 -85
-556 -263 -173 -77 -462 -207 -641 -291 -179 -83 -332 -151 -340 -151 -18 0
-1942 591 -1951 599 -3 3 201 93 455 200 642 269 695 298 837 440 157 158 225
311 275 624 3 20 8 37 10 37 2 0 480 -117 1062 -260z" />
        <path d="M4865 2546 c-22 -7 -507 -225 -1079 -485 -833 -379 -1044 -471 -1065
-466 -14 4 -581 177 -1259 386 -705 217 -1248 379 -1270 379 -123 -1 -218
-132 -183 -251 15 -51 60 -101 108 -122 21 -9 610 -193 1308 -408 1035 -319
1281 -392 1330 -393 59 -1 83 10 1155 497 602 274 1110 508 1128 520 39 27 82
108 82 157 0 20 -12 60 -26 88 -43 87 -139 128 -229 98z" />
        <path d="M4810 1737 c-41 -18 -523 -237 -1070 -486 l-996 -452 -1253 385
c-846 261 -1268 386 -1298 386 -80 0 -157 -57 -183 -136 -26 -77 12 -179 82
-222 35 -21 2573 -805 2645 -817 33 -5 56 -1 115 23 190 78 2167 984 2197
1008 106 85 86 255 -38 321 -61 32 -111 29 -201 -10z" />
    </g>
</svg>