<svg xmlns="http://www.w3.org/2000/svg" width="256" height="256" viewBox="0 0 256 256" version="1.1"><path d="M 45.268 77.900 C 38.693 80.336, 35.235 82.792, 29.964 88.770 C 21.283 98.618, 19.036 106.811, 19.015 128.701 C 18.992 151.640, 21.730 160.594, 31.953 171.023 C 40.682 179.927, 52.821 183.455, 66.519 181.070 C 82.977 178.204, 94.454 167.113, 95.750 152.822 L 96.278 147 89.139 147 L 82 147 82 150.304 C 82 152.121, 80.831 155.952, 79.403 158.818 C 75.991 165.665, 70.468 169.032, 61.462 169.755 C 50.044 170.672, 42.380 166.025, 37.123 155 C 34.548 149.600, 34.500 149.118, 34.521 128.500 C 34.544 105.634, 34.708 104.801, 40.827 96.383 C 44.961 90.697, 51.233 87.813, 59.329 87.875 C 66.473 87.929, 70.030 89.023, 74.732 92.609 C 78.815 95.723, 80.122 98.106, 81.529 105 L 82.651 110.500 89.466 110.799 L 96.282 111.098 95.774 104.769 C 94.853 93.298, 87.192 83.162, 76.221 78.899 C 68.017 75.712, 52.525 75.212, 45.268 77.900 M 114 128.500 L 114 180 121 180 L 128 180 128 158 L 128 136 141.788 136 C 154.105 136, 156.050 136.240, 160.015 138.250 C 167 141.790, 168.355 145.122, 169.071 160.517 C 169.443 168.529, 170.225 174.699, 171.098 176.527 C 172.473 179.401, 172.778 179.510, 180.260 179.792 C 188.591 180.106, 189.156 179.694, 186.321 175.367 C 185.069 173.456, 184.462 169.336, 183.935 159.152 C 183.546 151.644, 182.696 144.152, 182.046 142.504 C 180.151 137.706, 176.396 133.416, 172.451 131.544 L 168.789 129.806 171.645 128.048 C 179.137 123.436, 182.974 117.377, 183.738 108.956 C 184.846 96.735, 179.438 86.245, 169.642 81.610 C 162.173 78.077, 153.750 77.043, 132.250 77.020 L 114 77 114 128.500 M 128 106.590 L 128 124.179 143.250 123.840 C 160.533 123.455, 164.053 122.300, 167.248 115.966 C 169.383 111.735, 169.573 102.001, 167.595 98.200 C 163.744 90.799, 158.530 89.013, 140.750 89.006 L 128 89 128 106.590 M 202 166.074 C 192.925 177.104, 184.758 187.086, 183.851 188.257 C 182.208 190.375, 182.171 190.358, 175.217 184.192 C 171.375 180.787, 167.787 178, 167.242 178 C 165.902 178, 153.577 189.021, 153.197 190.560 C 152.815 192.107, 182.891 219.187, 184.552 218.792 C 186.643 218.295, 233 161.203, 233 159.125 C 233 157.132, 221.601 145.991, 219.580 146.010 C 218.986 146.015, 211.075 155.044, 202 166.074" stroke="none" fill="#000" fill-rule="evenodd"/><path d="" stroke="none" fill="#bcac74" fill-rule="evenodd"/></svg>