<svg xmlns="http://www.w3.org/2000/svg" width="512" height="512"><path fill="#eee" fill-rule="evenodd" d="M0 256.002v256.002l256.25-.252 256.25-.252.252-255.75L513.004 0H0zm.492.498c0 140.8.116 198.251.258 127.67s.142-185.782 0-256C.608 57.951.492 115.7.492 256.5M250.355 35.975c-9.798 2.092-19.981 10.009-24.063 18.708-1.679 3.576-1.824 10.786-2.292 114.051l-.5 110.234-37-31.138c-24.606-20.708-38.842-32.001-42.5-33.713-7.889-3.692-20.114-3.691-28 .002-8.026 3.758-15.361 10.837-19.102 18.436-2.901 5.893-3.123 7.036-2.687 13.829.552 8.596 3.06 13.686 9.959 20.211 2.382 2.252 29.98 25.588 61.33 51.857 31.35 26.27 60.26 51.114 64.244 55.209 10.389 10.676 15.382 12.828 29.774 12.834 10.454.005 11.361-.164 17.747-3.306 4.541-2.235 8.113-4.936 10.982-8.305 2.339-2.746 30.578-30.708 62.753-62.137 32.175-31.428 59.941-59.127 61.701-61.553 6.156-8.479 6.543-21.694.885-30.243-3.938-5.951-10.686-11.8-17.565-15.225-5.793-2.884-7.382-3.224-15-3.204-14.345.036-14.933.45-52.085 36.655-17.679 17.228-32.539 31.47-33.022 31.65-.5.187-.994-45.658-1.146-106.5L294.5 57.5l-2.971-5.364c-3.561-6.43-9.554-11.578-16.59-14.251-5.904-2.243-18.458-3.219-24.584-1.91m-186.7 296.484c-4.394 1.566-8.21 4.821-10.25 8.741-2.132 4.099-2.077 111.599.059 115.731 2.026 3.917 6.888 7.795 11.317 9.025 2.497.694 65.5 1.035 191.773 1.038l188.053.006 5.159-2.571c3.282-1.635 5.99-3.908 7.446-6.25l2.288-3.679v-111l-2.288-3.679c-1.456-2.342-4.164-4.615-7.446-6.25-4.413-2.2-6.467-2.568-14.212-2.549-10.642.026-15.385 1.743-20.313 7.356L412 342.07V418H100.09l-.295-37.75-.295-37.75-2.401-3.366c-3.855-5.405-10.946-8.121-21.099-8.08-4.675.018-10.23.651-12.345 1.405"/><path fill-rule="evenodd" d="M250.355 35.975c-9.798 2.092-19.981 10.009-24.063 18.708-1.679 3.576-1.824 10.786-2.292 114.051l-.5 110.234-37-31.138c-24.606-20.708-38.842-32.001-42.5-33.713-7.889-3.692-20.114-3.691-28 .002-8.026 3.758-15.361 10.837-19.102 18.436-2.901 5.893-3.123 7.036-2.687 13.829.552 8.596 3.06 13.686 9.959 20.211 2.382 2.252 29.98 25.588 61.33 51.857 31.35 26.27 60.26 51.114 64.244 55.209 10.389 10.676 15.382 12.828 29.774 12.834 10.454.005 11.361-.164 17.747-3.306 4.541-2.235 8.113-4.936 10.982-8.305 2.339-2.746 30.578-30.708 62.753-62.137 32.175-31.428 59.941-59.127 61.701-61.553 6.156-8.479 6.543-21.694.885-30.243-3.938-5.951-10.686-11.8-17.565-15.225-5.793-2.884-7.382-3.224-15-3.204-14.345.036-14.933.45-52.085 36.655-17.679 17.228-32.539 31.47-33.022 31.65-.5.187-.994-45.658-1.146-106.5L294.5 57.5l-2.971-5.364c-3.561-6.43-9.554-11.578-16.59-14.251-5.904-2.243-18.458-3.219-24.584-1.91m-186.7 296.484c-4.394 1.566-8.21 4.821-10.25 8.741-2.132 4.099-2.077 111.599.059 115.731 2.026 3.917 6.888 7.795 11.317 9.025 2.497.694 65.5 1.035 191.773 1.038l188.053.006 5.159-2.571c3.282-1.635 5.99-3.908 7.446-6.25l2.288-3.679v-111l-2.288-3.679c-1.456-2.342-4.164-4.615-7.446-6.25-4.413-2.2-6.467-2.568-14.212-2.549-10.642.026-15.385 1.743-20.313 7.356L412 342.07V418H100.09l-.295-37.75-.295-37.75-2.401-3.366c-3.855-5.405-10.946-8.121-21.099-8.08-4.675.018-10.23.651-12.345 1.405"/></svg>