<?xml version="1.0" standalone="no"?>
<!DOCTYPE svg PUBLIC "-//W3C//DTD SVG 20010904//EN"
 "http://www.w3.org/TR/2001/REC-SVG-20010904/DTD/svg10.dtd">
<svg version="1.0" xmlns="http://www.w3.org/2000/svg"
 width="128.000000pt" height="128.000000pt" viewBox="0 0 128.000000 128.000000"
 preserveAspectRatio="xMidYMid meet">
<metadata>
Created by potrace 1.16, written by Peter Selinger 2001-2019
</metadata>
<g transform="translate(0.000000,128.000000) scale(0.100000,-0.100000)"
fill="#000000" stroke="none">
<path d="M260 635 l0 -315 131 0 c154 0 195 10 254 62 72 63 90 112 90 248 0
106 -2 120 -28 172 -56 115 -129 148 -324 148 l-123 0 0 -315z m295 210 c60
-35 79 -79 83 -194 2 -52 -1 -111 -7 -131 -26 -87 -93 -129 -203 -130 l-68 0
0 240 0 240 77 0 c63 0 84 -4 118 -25z"/>
<path d="M850 845 l0 -55 -35 0 c-33 0 -35 -2 -35 -35 0 -33 2 -35 35 -35 l35
0 0 -147 c0 -82 5 -165 10 -185 15 -52 52 -78 109 -78 62 0 75 10 66 48 -5 27
-11 31 -43 34 l-37 3 -3 163 -2 162 45 0 c45 0 45 0 45 35 0 35 0 35 -45 35
l-45 0 0 55 0 55 -50 0 -50 0 0 -55z"/>
</g>
</svg>
