<?xml version="1.0" standalone="no"?>
<!DOCTYPE svg PUBLIC "-//W3C//DTD SVG 20010904//EN"
 "http://www.w3.org/TR/2001/REC-SVG-20010904/DTD/svg10.dtd">
<svg version="1.0" xmlns="http://www.w3.org/2000/svg"
 width="512.000000pt" height="512.000000pt" viewBox="0 0 512.000000 512.000000"
 preserveAspectRatio="xMidYMid meet">

<g transform="translate(0.000000,512.000000) scale(0.100000,-0.100000)"
fill="#000000" stroke="none">
<path d="M940 2550 l0 -1280 441 0 c349 0 464 3 547 16 445 66 761 350 873
785 20 76 22 117 26 428 4 290 2 359 -12 444 -41 246 -140 435 -316 602 -128
121 -260 195 -431 240 -150 39 -239 45 -695 45 l-433 0 0 -1280z m995 981
c134 -35 218 -84 316 -181 73 -74 93 -102 137 -191 83 -169 102 -281 102 -604
-1 -332 -19 -445 -100 -610 -82 -167 -213 -291 -367 -348 -129 -48 -162 -51
-458 -52 l-280 0 -3 995 c-1 547 0 1001 3 1009 4 11 54 13 288 8 245 -4 292
-7 362 -26z"/>
<path d="M3350 3400 l0 -230 -150 0 -150 0 0 -130 0 -130 150 0 150 0 0 -582
c0 -588 6 -708 37 -807 39 -125 139 -224 267 -263 98 -30 225 -30 321 0 110
35 106 28 81 162 -19 103 -24 115 -41 112 -11 -2 -54 -6 -95 -8 -66 -5 -80 -3
-120 18 -30 16 -53 39 -70 69 l-25 44 -3 628 -3 627 181 0 180 0 0 130 0 130
-180 0 -180 0 0 230 0 230 -175 0 -175 0 0 -230z"/>
</g>
</svg>
