<?xml version="1.0" standalone="no"?>
<!DOCTYPE svg PUBLIC "-//W3C//DTD SVG 20010904//EN"
 "http://www.w3.org/TR/2001/REC-SVG-20010904/DTD/svg10.dtd">
<svg version="1.0" xmlns="http://www.w3.org/2000/svg"
 width="128.000000pt" height="128.000000pt" viewBox="0 0 128.000000 128.000000"
 preserveAspectRatio="xMidYMid meet">

<g transform="translate(0.000000,128.000000) scale(0.100000,-0.100000)"
fill="#000000" stroke="none">
<path d="M238 954 c-5 -4 -8 -149 -8 -322 l0 -314 148 4 c167 4 199 14 265 87
46 51 67 122 67 226 0 151 -46 242 -147 291 -52 26 -69 29 -188 32 -71 2 -133
1 -137 -4z m299 -96 c59 -39 77 -84 81 -202 4 -113 -6 -160 -45 -207 -38 -45
-80 -59 -173 -59 l-80 0 0 251 0 251 89 -4 c75 -3 95 -8 128 -30z"/>
<path d="M840 851 l0 -61 -40 0 c-38 0 -40 -2 -40 -30 0 -28 2 -30 39 -30 l40
0 3 -181 3 -181 33 -29 c25 -22 42 -29 75 -29 56 0 70 10 61 43 -5 21 -12 27
-34 27 -49 0 -54 17 -52 188 l1 157 43 5 c38 4 43 8 46 32 3 25 1 27 -44 30
l-47 3 -1 55 -1 55 -42 3 -43 3 0 -60z"/>
</g>
</svg>
