<svg xmlns="http://www.w3.org/2000/svg" width="128" height="128" viewBox="0 0 128 128" version="1.1"><path d="" stroke="none" fill="#54c454" fill-rule="evenodd"/><path d="M 59.682 4.442 C 58.682 5.200, 54.703 13.398, 50.840 22.660 C 46.976 31.922, 43.519 39.795, 43.158 40.156 C 42.601 40.710, 11.294 44, 6.573 44 C 3.848 44, 1 47.772, 1 51.380 C 1 54.481, 2.196 55.807, 15.500 67.449 C 23.475 74.428, 30 80.490, 30 80.919 C 30 81.349, 28.183 89.503, 25.962 99.040 C 21.892 116.516, 21.661 120.644, 24.618 123.098 C 27.796 125.735, 31.673 124.317, 47.823 114.607 L 64 104.880 80.177 114.607 C 97.601 125.083, 100.880 126.101, 104.156 122.056 C 105.170 120.803, 106 118.996, 106 118.039 C 106 117.082, 104.200 108.570, 102 99.123 C 99.800 89.676, 98 81.546, 98 81.057 C 98 80.567, 104.525 74.428, 112.500 67.415 C 126.396 55.194, 127 54.504, 127 50.854 C 127 45.024, 125.181 44.359, 104 42.444 C 93.825 41.524, 85.211 40.485, 84.858 40.135 C 84.505 39.786, 81.170 32.300, 77.449 23.500 C 73.727 14.700, 69.775 6.487, 68.666 5.250 C 66.400 2.720, 62.425 2.362, 59.682 4.442 M 61.831 7.250 C 60.978 7.938, 57.228 15.925, 53.498 25 C 49.768 34.075, 46.184 42.080, 45.534 42.789 C 44.770 43.621, 38.010 44.621, 26.426 45.614 C 16.567 46.460, 7.488 47.558, 6.250 48.054 C 1.702 49.879, 3.585 52.582, 18.404 65.502 C 26.327 72.409, 33.028 78.631, 33.296 79.330 C 33.565 80.029, 32.012 88.220, 29.846 97.532 C 25.638 115.625, 25.335 120.263, 28.328 120.830 C 29.339 121.022, 37.727 116.642, 47.104 111.025 L 64.053 100.873 80.755 110.976 C 90.443 116.836, 98.307 120.957, 99.479 120.790 C 102.692 120.329, 102.432 116.077, 98.033 97.093 C 95.815 87.520, 94 79.588, 94 79.467 C 94 79.345, 100.750 73.300, 109 66.033 C 124.346 52.515, 126.218 49.872, 121.750 48.030 C 120.513 47.519, 111.205 46.396, 101.066 45.533 C 90.927 44.671, 82.542 43.860, 82.433 43.732 C 82.324 43.605, 78.781 35.411, 74.560 25.524 C 66.108 5.727, 65.250 4.495, 61.831 7.250" stroke="none" fill="#ac6414" fill-rule="evenodd"/></svg>