<svg xmlns="http://www.w3.org/2000/svg" width="128" height="128" viewBox="0 0 128 128" version="1.1"><path d="M 59.298 5.250 C 58.169 6.488, 54.225 14.700, 50.532 23.500 C 46.840 32.300, 43.522 39.795, 43.159 40.156 C 42.602 40.710, 11.293 44, 6.573 44 C 3.848 44, 1 47.772, 1 51.380 C 1 54.481, 2.196 55.807, 15.500 67.449 C 23.475 74.428, 30.001 80.444, 30.002 80.819 C 30.004 81.194, 28.118 89.885, 25.811 100.133 C 21.838 117.785, 21.703 118.898, 23.251 121.261 C 26.680 126.493, 28.800 125.940, 47.154 115.025 L 64.085 104.955 80.906 115.031 C 99.155 125.962, 101.301 126.522, 104.749 121.261 C 106.297 118.898, 106.162 117.785, 102.189 100.133 C 99.882 89.885, 97.996 81.194, 97.998 80.819 C 97.999 80.444, 104.525 74.428, 112.500 67.449 C 125.804 55.807, 127 54.481, 127 51.380 C 127 46.042, 124.437 44.302, 115.344 43.471 C 111.030 43.076, 102.359 42.246, 96.076 41.627 L 84.653 40.500 77.576 23.839 C 73.684 14.676, 69.643 6.239, 68.595 5.089 C 66.097 2.350, 61.875 2.423, 59.298 5.250" stroke="none" fill="#FFC107" fill-rule="evenodd"/><path d="" stroke="none" fill="#14043c" fill-rule="evenodd"/></svg>