<?xml version="1.0" encoding="UTF-8"?>
<!DOCTYPE svg PUBLIC "-//W3C//DTD SVG 1.1//EN" "http://www.w3.org/Graphics/SVG/1.1/DTD/svg11.dtd">
<svg xmlns="http://www.w3.org/2000/svg" version="1.1" width="470px" height="512px" style="shape-rendering:geometricPrecision; text-rendering:geometricPrecision; image-rendering:optimizeQuality; fill-rule:evenodd; clip-rule:evenodd" xmlns:xlink="http://www.w3.org/1999/xlink">
<g><path style="opacity:1" fill="#999999" d="M 70.5,87.5 C 73.6883,87.6178 76.6883,88.4511 79.5,90C 134.002,144.835 188.168,200.002 242,255.5C 295.694,309.528 349.694,363.194 404,416.5C 407.597,425.639 404.597,431.305 395,433.5C 392.755,432.863 390.588,432.03 388.5,431C 280.64,322.14 172.473,213.64 64,105.5C 59.9447,97.161 62.1114,91.161 70.5,87.5 Z"/></g>
<g><path style="opacity:1" fill="#999999" d="M 209.5,126.5 C 260.428,123.733 308.428,134.233 353.5,158C 395.56,181.03 432.727,210.53 465,246.5C 468.655,250.75 469.321,255.416 467,260.5C 440.414,299.425 406.581,330.259 365.5,353C 363.35,354.59 361.017,355.257 358.5,355C 353.651,350.319 348.985,345.485 344.5,340.5C 384.338,320.173 417.671,292.006 444.5,256C 416.303,225.457 384.303,199.79 348.5,179C 343.289,176.053 337.955,173.72 332.5,172C 364.036,211.717 371.203,255.55 354,303.5C 349.567,314.25 343.9,324.25 337,333.5C 331.532,329.033 326.365,324.2 321.5,319C 347.322,280.359 349.155,240.525 327,199.5C 300.194,159.325 262.694,142.492 214.5,149C 208.416,150.354 202.416,152.021 196.5,154C 187.87,157.819 179.536,161.819 171.5,166C 163.167,157.667 154.833,149.333 146.5,141C 167.078,133.77 188.078,128.936 209.5,126.5 Z"/></g>
<g><path style="opacity:1" fill="#999999" d="M -0.5,255.5 C -0.5,255.167 -0.5,254.833 -0.5,254.5C 0.321983,252.611 1.15532,250.611 2,248.5C 29.225,214.931 61.0583,186.764 97.5,164C 99.6498,162.41 101.983,161.743 104.5,162C 109.167,166.667 113.833,171.333 118.5,176C 83.2014,196.612 52.0347,222.446 25,253.5C 24.3333,254.5 24.3333,255.5 25,256.5C 55.6733,293.339 92.84,321.672 136.5,341.5C 136.833,341.167 137.167,340.833 137.5,340.5C 103.761,299.172 96.594,253.506 116,203.5C 118.909,196.676 122.576,190.342 127,184.5C 132.015,189.348 136.848,194.348 141.5,199.5C 121.693,236.417 121.527,273.417 141,310.5C 173.218,357.131 216.718,372.631 271.5,357C 277.726,354.304 283.893,351.47 290,348.5C 298.281,356.615 306.447,364.949 314.5,373.5C 241.266,393.596 171.266,385.43 104.5,349C 64.5953,326.778 30.4287,297.611 2,261.5C 1.15532,259.389 0.321983,257.389 -0.5,255.5 Z"/></g>
<g><path style="opacity:1" fill="#999999" d="M 226.5,202.5 C 262.667,202.003 283,219.669 287.5,255.5C 287.209,263.666 285.209,271.332 281.5,278.5C 266.875,263.374 252.041,248.374 237,233.5C 236.852,220.347 231.019,210.847 219.5,205C 221.927,204.098 224.26,203.264 226.5,202.5 Z"/></g>
<g><path style="opacity:1" fill="#999999" d="M 182.5,241.5 C 204.829,262.325 226.829,283.825 248.5,306C 222.606,311.798 202.44,303.632 188,281.5C 181.712,268.814 179.879,255.48 182.5,241.5 Z"/></g>
</svg>
