<?xml version="1.0" standalone="no"?>
<!DOCTYPE svg PUBLIC "-//W3C//DTD SVG 20010904//EN"
 "http://www.w3.org/TR/2001/REC-SVG-20010904/DTD/svg10.dtd">
<svg version="1.0" xmlns="http://www.w3.org/2000/svg"
 width="834.000000pt" height="844.000000pt" viewBox="0 0 834.000000 844.000000"
 preserveAspectRatio="xMidYMid meet">

<g transform="translate(0.000000,844.000000) scale(0.100000,-0.100000)"
fill="#013E62" stroke="none">
<path d="M1400 8369 c-487 -5 -483 -5 -594 -61 -115 -58 -202 -177 -232 -317
-12 -56 -14 -632 -14 -3796 l1 -3730 24 -75 c58 -175 177 -285 352 -326 62
-15 362 -16 3208 -16 1727 1 3169 4 3205 7 188 19 380 202 405 385 4 30 8 466
8 968 l0 912 127 0 c108 0 131 3 150 18 l22 18 1 1294 0 1293 -23 19 c-19 15
-41 18 -145 18 l-123 0 -6 48 c-3 26 -5 254 -5 507 0 504 -5 554 -66 724 -71
200 -157 331 -330 507 -44 45 -174 179 -290 298 -115 120 -275 284 -355 366
-80 82 -217 222 -305 313 -88 90 -205 210 -259 266 -167 172 -366 281 -626
341 l-95 22 -1790 2 c-984 0 -1995 -1 -2245 -5z m1249 -996 c-216 -219 -249
-255 -273 -311 -39 -88 -44 -154 -18 -239 49 -159 178 -270 378 -323 76 -20
140 -28 434 -50 258 -19 386 -76 446 -196 25 -52 25 -207 0 -317 -10 -43 -15
-81 -12 -84 8 -8 37 18 300 267 129 123 240 236 247 252 6 16 9 49 6 75 -5 45
-9 50 -568 610 l-564 563 1010 -2 1010 -3 67 -32 c83 -39 149 -105 191 -193
l32 -65 2 -523 c2 -562 1 -558 56 -667 34 -69 115 -153 184 -192 111 -62 126
-63 658 -66 l480 -2 66 -31 c78 -37 158 -112 194 -183 35 -70 44 -160 43 -443
l0 -238 -1992 0 -1991 -1 231 236 c244 248 282 299 304 403 31 142 -61 316
-215 407 -120 71 -240 97 -540 115 -306 18 -441 69 -508 195 -19 35 -22 55
-21 155 1 68 8 142 17 180 9 36 13 68 9 72 -8 8 -520 -472 -539 -506 -17 -29
-16 -101 1 -134 8 -15 261 -273 563 -574 l548 -548 -340 0 c-378 0 -433 -7
-535 -61 -129 -69 -219 -205 -241 -364 -7 -53 -9 -382 -7 -970 l3 -890 41 -85
c73 -152 202 -254 355 -279 46 -8 772 -11 2457 -11 l2390 0 6 -27 c8 -46 5
-1125 -4 -1163 -24 -100 -34 -123 -74 -177 -51 -69 -127 -118 -216 -139 -53
-12 -420 -14 -2588 -12 l-2527 3 -65 31 c-83 39 -155 111 -194 194 l-31 65 0
3115 0 3115 31 65 c52 111 114 166 236 210 50 18 87 19 683 20 l629 0 -245
-247z m1476 -3184 c33 -12 72 -35 87 -50 24 -24 28 -35 28 -87 0 -100 -15
-112 -83 -66 -55 37 -111 54 -179 54 -133 0 -218 -81 -249 -239 -15 -77 -7
-217 17 -285 23 -68 95 -140 154 -156 75 -20 162 -8 247 36 89 45 97 41 96
-53 0 -62 -3 -69 -32 -95 -49 -44 -159 -73 -271 -72 -206 2 -340 91 -408 273
-34 89 -43 302 -18 402 50 194 159 310 334 354 77 20 201 13 277 -16z m-1030
0 c18 -19 335 -938 335 -971 0 -25 -4 -27 -52 -33 -29 -4 -75 -3 -103 2 l-50
8 -39 113 -38 112 -188 0 -188 0 -37 -110 c-20 -60 -42 -113 -48 -117 -6 -3
-46 -7 -89 -7 -84 -1 -103 9 -92 49 19 68 319 924 330 942 18 28 39 32 152 29
64 -2 98 -8 107 -17z m2290 1 c13 -11 15 -65 15 -345 0 -350 2 -373 47 -433
30 -40 66 -59 129 -67 102 -14 199 43 223 130 7 26 11 160 11 371 0 292 2 333
16 345 22 18 155 19 177 0 15 -12 17 -48 17 -335 0 -406 -10 -464 -96 -564
-105 -123 -374 -159 -549 -73 -76 37 -126 92 -157 170 -22 54 -23 69 -26 428
l-3 372 33 10 c41 13 144 7 163 -9z m2251 -2 c18 -18 346 -956 342 -977 -5
-23 -77 -35 -150 -25 l-61 9 -37 110 -37 110 -189 3 -190 2 -33 -102 c-18 -57
-38 -108 -43 -115 -13 -16 -107 -27 -148 -16 -27 7 -36 15 -38 34 -2 21 303
919 326 959 14 23 50 30 150 26 65 -2 98 -8 108 -18z m-5126 -14 c6 -14 10
-40 10 -59 0 -19 -4 -45 -10 -59 l-10 -26 -170 0 -170 0 0 -135 0 -135 160 0
c180 0 180 0 180 -80 0 -80 0 -80 -180 -80 l-160 0 0 -194 c0 -166 -2 -195
-16 -207 -22 -18 -156 -18 -178 0 -14 12 -16 63 -16 489 0 428 2 477 17 494
15 17 37 18 275 18 l258 0 10 -26z m2554 10 c11 -28 6 -130 -6 -142 -8 -8 -54
-12 -140 -12 l-128 0 0 -415 0 -415 -27 -7 c-43 -12 -150 -8 -168 7 -13 11
-15 65 -15 421 l0 409 -128 0 c-86 0 -132 4 -140 12 -12 12 -17 114 -6 142 5
14 48 16 379 16 331 0 374 -2 379 -16z m1659 1 c143 -37 208 -119 208 -261 0
-115 -47 -196 -142 -245 l-39 -19 41 -37 c27 -24 55 -67 84 -127 62 -132 117
-275 111 -291 -6 -17 -118 -29 -171 -18 l-40 9 -65 158 c-43 106 -77 172 -101
199 -34 39 -39 41 -102 45 l-67 4 -2 -203 -3 -204 -47 -8 c-27 -4 -69 -4 -95
0 l-48 8 -3 490 c-2 452 -1 491 15 503 26 19 391 17 466 -3z"/>
<path d="M2891 3802 c-35 -108 -66 -203 -68 -209 -4 -10 28 -13 135 -13 l141
0 -69 206 c-38 114 -71 208 -72 210 -2 1 -32 -86 -67 -194z"/>
<path d="M7429 3785 l-66 -205 139 0 c108 0 139 3 135 13 -2 6 -33 99 -68 205
-35 105 -66 192 -69 192 -3 0 -35 -92 -71 -205z"/>
<path d="M6440 3900 l0 -140 80 0 c132 0 190 39 197 132 8 105 -48 148 -192
148 l-85 0 0 -140z"/>
</g>
</svg>
