<svg xmlns="http://www.w3.org/2000/svg" width="256" height="256" viewBox="0 0 256 256" version="1.1"><path d="M 52.856 67.316 C 44.817 70.056, 39.322 73.736, 33.350 80.378 C 28.364 85.924, 26.747 88.701, 23.723 96.913 C 21.933 101.773, 21.611 105.429, 21.247 125 C 20.907 143.240, 21.132 148.806, 22.434 154.397 C 25.335 166.859, 32.125 176.862, 42.555 184.038 C 49.796 189.020, 57.208 191.218, 68.500 191.731 C 85.457 192.503, 98.971 188.327, 109.159 179.167 L 114 174.815 114 151.407 L 114 128 91.500 128 L 69 128 69 135 L 69 142 83 142 L 97 142 97 155.864 L 97 169.728 93.097 172.433 C 90.951 173.920, 87.054 175.781, 84.438 176.569 C 78.116 178.471, 65.524 178.398, 59.734 176.425 C 49.494 172.936, 40.874 161.104, 38.969 147.925 C 37.745 139.455, 37.782 117.279, 39.036 108.608 C 40.786 96.498, 46.315 87.244, 54.752 82.299 C 60.713 78.806, 73.157 77.895, 80.699 80.400 C 88.878 83.117, 95.397 91.323, 96.653 100.483 L 97.272 105 105.778 105 L 114.285 105 113.641 98.836 C 112.030 83.424, 102.025 71.910, 85.875 66.884 C 76.978 64.115, 61.660 64.315, 52.856 67.316 M 142 120.899 C 134.141 122.568, 127.654 128.129, 123.801 136.500 C 121.735 140.989, 121.500 142.983, 121.500 156 C 121.500 169.870, 121.622 170.749, 124.311 176.224 C 127.543 182.806, 133.269 188.165, 138.858 189.839 C 143.579 191.254, 152.311 191.345, 156.905 190.027 C 164.834 187.753, 171.591 180.262, 172.644 172.579 L 173.272 168 168.136 168 C 163.201 168, 163 168.107, 162.996 170.750 C 162.991 174.578, 159.694 179.590, 155.884 181.560 C 151.132 184.017, 141.865 183.156, 138.416 179.937 C 133.167 175.038, 131.623 170.426, 131.190 158.365 C 130.697 144.606, 132.306 138.034, 137.368 133.128 C 145.963 124.797, 161.230 128.844, 162.706 139.843 L 163.263 144 168.132 144 C 172.962 144, 173 143.975, 172.978 140.750 C 172.927 133.149, 165.621 124.023, 158 122.040 C 152.355 120.571, 145.761 120.101, 142 120.899 M 184.667 121.667 C 184.300 122.033, 184 137.558, 184 156.167 L 184 190 189 190 L 194 190 194 175.500 L 194 161 203.984 161 C 213.586 161, 214.093 161.111, 217.211 163.897 C 220.348 166.700, 220.476 167.124, 221.135 176.934 C 221.509 182.511, 222.362 187.732, 223.030 188.537 C 223.793 189.455, 226.061 190, 229.122 190 C 231.805 190, 233.993 189.887, 233.985 189.750 C 233.977 189.613, 233.321 187.700, 232.529 185.500 C 231.736 183.300, 231.068 178.220, 231.044 174.210 C 230.992 165.518, 228.593 159.873, 224.108 157.888 L 221.158 156.582 224.088 154.800 C 231.452 150.322, 233.509 138.270, 228.284 130.212 C 225.153 125.383, 221.309 123.273, 213.232 121.950 C 206.668 120.875, 185.667 120.667, 184.667 121.667 M 194 141 L 194 153 201.750 152.994 C 216.399 152.984, 221 150.205, 221 141.367 C 221 132.008, 216.293 129.144, 200.750 129.044 L 194 129 194 141" stroke="none" fill="#000" fill-rule="evenodd"/><path d="" stroke="none" fill="#ccc" fill-rule="evenodd"/></svg>