<?xml version="1.0" standalone="no"?>
<!DOCTYPE svg PUBLIC "-//W3C//DTD SVG 20010904//EN"
 "http://www.w3.org/TR/2001/REC-SVG-20010904/DTD/svg10.dtd">
<svg version="1.0" xmlns="http://www.w3.org/2000/svg"
 width="834.000000pt" height="844.000000pt" viewBox="0 0 834.000000 844.000000"
 preserveAspectRatio="xMidYMid meet">

<g transform="translate(0.000000,844.000000) scale(0.100000,-0.100000)"
fill="#013E62" stroke="none">
<path d="M1400 8369 c-487 -5 -483 -5 -594 -61 -115 -58 -202 -177 -232 -317
-12 -56 -14 -632 -14 -3796 l1 -3730 24 -75 c58 -175 177 -285 352 -326 62
-15 362 -16 3208 -16 1727 1 3169 4 3205 7 188 19 380 202 405 385 4 30 8 466
8 968 l0 912 127 0 c108 0 131 3 150 18 l22 18 1 1294 0 1293 -23 19 c-19 15
-41 18 -145 18 l-123 0 -6 48 c-3 26 -5 254 -5 507 0 504 -5 554 -66 724 -71
200 -157 331 -330 507 -44 45 -174 179 -290 298 -115 120 -275 284 -355 366
-80 82 -217 222 -305 313 -88 90 -205 210 -259 266 -167 172 -366 281 -626
341 l-95 22 -1790 2 c-984 0 -1995 -1 -2245 -5z m1268 -986 c-215 -217 -240
-245 -272 -313 -31 -64 -36 -84 -36 -147 0 -140 64 -255 187 -336 126 -83 275
-121 513 -132 356 -17 501 -69 567 -203 24 -48 28 -70 28 -137 0 -44 -9 -122
-19 -172 -11 -51 -17 -96 -13 -99 6 -7 221 192 450 416 l107 105 0 51 c0 41
-6 59 -29 90 -16 21 -271 281 -568 577 l-539 538 1001 -3 1000 -3 67 -32 c83
-39 149 -105 191 -193 l32 -65 2 -523 c2 -562 1 -558 56 -667 34 -69 115 -153
184 -192 111 -62 126 -63 658 -66 l480 -2 66 -31 c78 -37 158 -112 194 -183
35 -70 44 -160 43 -443 l0 -238 -1981 0 -1981 0 235 238 c217 218 238 243 268
310 31 69 33 79 29 157 -8 157 -96 277 -260 355 -113 54 -231 78 -445 90 -283
15 -413 47 -497 122 -74 65 -91 105 -90 223 0 59 7 129 17 172 20 84 21 93 6
93 -9 0 -295 -267 -476 -445 l-73 -72 0 -58 0 -59 562 -563 563 -563 -345 0
c-384 0 -438 -6 -540 -61 -129 -69 -219 -205 -241 -364 -7 -53 -9 -382 -7
-970 l3 -890 41 -85 c73 -152 202 -254 355 -279 46 -8 772 -11 2457 -11 l2390
0 6 -27 c8 -46 5 -1125 -4 -1163 -24 -100 -34 -123 -74 -177 -51 -69 -127
-118 -216 -139 -53 -12 -420 -14 -2588 -12 l-2527 3 -65 31 c-83 39 -155 111
-194 194 l-31 65 0 3115 0 3115 31 65 c52 111 114 166 236 210 50 18 88 19
688 20 l635 0 -237 -237z m1726 -3114 c94 -13 179 -41 222 -74 25 -19 34 -35
39 -69 9 -56 -3 -126 -22 -133 -8 -3 -42 8 -77 25 -166 81 -321 90 -447 27
-132 -67 -207 -247 -180 -432 30 -203 150 -315 342 -315 45 0 91 7 112 16 l37
15 0 130 0 131 -109 0 c-129 0 -136 4 -136 90 0 92 -4 90 230 90 185 0 205 -2
226 -19 24 -19 24 -22 27 -237 5 -270 0 -319 -35 -341 -45 -30 -193 -63 -308
-69 -355 -20 -581 152 -625 475 -40 296 93 556 333 652 108 44 238 57 371 38z
m1418 -24 c94 -20 150 -46 196 -95 56 -57 76 -120 70 -224 -7 -131 -63 -214
-177 -263 l-34 -14 35 -24 c20 -13 49 -44 66 -69 43 -66 165 -355 166 -395 1
-33 -2 -35 -39 -44 -59 -13 -177 -2 -192 19 -6 9 -39 84 -73 167 -100 250
-123 277 -236 277 l-64 0 0 -219 c0 -187 -2 -220 -16 -232 -17 -14 -142 -19
-186 -6 l-28 7 0 543 c0 562 0 566 40 580 35 12 406 6 472 -8z"/>
<path d="M5530 3921 l0 -161 84 0 c121 0 177 24 212 92 20 39 18 117 -6 155
-31 51 -71 66 -187 71 l-103 4 0 -161z"/>
</g>
</svg>
