<?xml version="1.0" standalone="no"?>
<!DOCTYPE svg PUBLIC "-//W3C//DTD SVG 20010904//EN" "http://www.w3.org/TR/2001/REC-SVG-20010904/DTD/svg10.dtd">
<svg version="1.0" xmlns="http://www.w3.org/2000/svg" width="980.000000pt" height="996.000000pt"
    viewBox="0 0 980.000000 996.000000" preserveAspectRatio="xMidYMid meet">

    <g transform="translate(0.000000,996.000000) scale(0.100000,-0.100000)" fill="#b5b5b6" stroke="none">
        <path d="M4940 9936 c-30 -14 -566 -268 -1190 -564 -822 -391 -1144 -549
-1167 -572 -22 -22 -35 -48 -43 -83 -8 -37 -10 -482 -8 -1548 l3 -1497 -50 -4
c-40 -4 -277 -113 -1225 -563 -646 -307 -1188 -569 -1204 -584 -59 -54 -56 45
-56 -1618 0 -1461 1 -1530 19 -1568 10 -22 27 -47 37 -56 10 -9 534 -300 1164
-645 l1145 -629 65 0 65 1 1140 625 c627 345 1154 640 1171 656 18 18 36 49
43 76 8 34 11 437 11 1496 l0 1451 26 -10 c14 -6 36 -10 49 -10 l25 0 2 -1463
3 -1462 22 -41 c12 -23 37 -51 55 -62 31 -19 2193 -1205 2268 -1244 20 -10 55
-18 85 -18 48 0 106 31 1190 631 627 347 1149 638 1159 647 10 10 27 35 37 57
18 38 19 107 19 1568 0 1653 3 1564 -53 1616 -14 13 -522 276 -1129 584 -1050
533 -1106 561 -1158 561 -30 1 -64 -2 -75 -6 -20 -8 -20 -4 -17 1520 3 1660 5
1578 -51 1629 -12 12 -521 274 -1131 583 -810 412 -1120 564 -1150 567 -28 2
-58 -4 -96 -21z m452 -527 c164 -82 237 -124 227 -129 -7 -4 -396 -206 -864
-450 -467 -243 -883 -459 -923 -481 l-72 -38 -275 151 -276 151 98 46 c54 26
148 71 208 99 61 29 450 214 865 412 415 197 758 359 763 359 4 1 116 -53 249
-120z m1007 -515 c223 -113 410 -209 414 -213 4 -4 -413 -238 -926 -520 l-934
-512 -427 233 c-234 128 -426 235 -426 238 0 8 1863 979 1879 979 8 1 197 -92
420 -205z m-3221 -723 l282 -154 2 -290 3 -289 209 -99 c115 -54 211 -99 212
-99 2 0 5 121 6 269 l3 268 440 -241 440 -242 3 -1297 c1 -713 0 -1297 -2
-1297 -2 0 -428 233 -947 518 l-944 517 -3 1298 c-1 714 2 1297 6 1295 5 -1
135 -72 290 -157z m-434 -2996 c215 -110 228 -119 205 -130 -86 -44 -1736
-903 -1785 -930 l-61 -33 -269 148 c-148 81 -268 151 -267 155 2 9 47 30 1088
525 455 216 829 388 840 387 12 -2 124 -57 249 -122z m4951 8 c129 -65 235
-120 235 -123 0 -3 -419 -224 -931 -491 l-931 -486 -247 135 c-135 74 -258
142 -274 151 l-27 17 957 456 c527 251 964 457 970 457 7 1 119 -52 248 -116z
m-3415 -793 c0 -9 -1850 -1024 -1865 -1023 -10 1 -833 449 -847 462 -4 3 417
227 935 498 l942 491 418 -211 c229 -115 417 -213 417 -217z m4550 218 c231
-117 420 -215 420 -218 0 -4 -1039 -576 -1801 -991 l-66 -37 -419 229 c-230
127 -422 233 -427 238 -5 5 1819 970 1871 990 2 0 192 -95 422 -211z m-8195
-662 l280 -154 3 -289 2 -289 215 -101 215 -101 0 270 c0 212 3 269 13 265 6
-3 208 -113 447 -244 l435 -239 3 -1298 c2 -1037 0 -1297 -10 -1293 -7 3 -436
237 -953 520 l-940 516 -3 1295 c-1 713 1 1296 5 1296 5 0 134 -69 288 -154z
m4969 -3 l286 -156 0 -287 0 -287 213 -101 212 -100 5 268 5 269 442 -242 443
-242 0 -1298 c0 -714 -4 -1297 -8 -1295 -10 4 -1599 875 -1767 968 l-120 67
-3 1297 c-1 713 0 1296 2 1296 3 0 133 -71 290 -157z" />
    </g>
</svg>