<?xml version="1.0" standalone="no"?>
<!DOCTYPE svg PUBLIC "-//W3C//DTD SVG 20010904//EN" "http://www.w3.org/TR/2001/REC-SVG-20010904/DTD/svg10.dtd">
<svg version="1.0" xmlns="http://www.w3.org/2000/svg" width="1200.000000pt" height="1200.000000pt"
    viewBox="0 0 1200.000000 1200.000000" preserveAspectRatio="xMidYMid meet">

    <g transform="translate(0.000000,1200.000000) scale(0.100000,-0.100000)" fill="#013E62" stroke="none">
        <path d="M6140 9452 c-52 -22 -185 -78 -295 -125 -582 -249 -770 -329 -1565
-667 -476 -202 -1232 -524 -1680 -715 -448 -190 -848 -365 -889 -388 -86 -49
-209 -165 -266 -252 -216 -328 -167 -780 112 -1047 l60 -57 -64 -63 c-172
-168 -253 -383 -241 -636 10 -193 84 -364 223 -510 l81 -85 -59 -56 c-262
-249 -323 -674 -144 -993 98 -173 262 -311 452 -377 33 -12 355 -82 715 -156
360 -75 752 -156 870 -181 118 -25 343 -72 500 -104 157 -32 328 -68 380 -79
52 -11 237 -50 410 -85 173 -36 640 -133 1038 -216 596 -123 729 -148 760
-141 31 7 518 227 2112 956 502 230 1519 694 1725 787 121 55 232 109 247 119
35 26 68 96 68 147 0 112 -79 192 -189 192 -53 0 -27 11 -1026 -445 -225 -103
-561 -256 -745 -340 -184 -84 -497 -227 -695 -317 -198 -91 -629 -288 -958
-438 l-598 -272 -442 92 c-243 50 -536 111 -652 135 -115 24 -340 71 -500 104
-159 33 -636 132 -1060 220 -423 88 -1007 210 -1297 270 -360 74 -545 117
-583 135 -171 78 -279 282 -246 466 37 207 201 355 403 367 76 4 123 -4 568
-97 267 -55 616 -128 775 -161 160 -33 396 -82 525 -109 1517 -317 2507 -520
2539 -520 26 0 79 18 158 54 65 29 325 148 578 264 253 115 975 445 1605 732
630 287 1282 585 1450 662 167 76 315 149 328 161 110 102 64 289 -80 328 -72
19 21 58 -1158 -481 -190 -87 -811 -370 -1380 -630 -569 -260 -1147 -523
-1284 -586 l-248 -113 -187 39 c-102 22 -523 109 -936 195 -412 86 -856 178
-985 205 -129 27 -306 63 -392 81 l-158 32 0 449 c0 335 3 448 12 448 6 0 597
-122 1312 -272 731 -152 1325 -272 1356 -272 50 -1 80 11 320 121 146 67 423
193 615 281 193 88 508 232 700 320 193 87 629 287 970 442 1340 612 1508 690
1531 711 89 83 62 255 -48 308 -85 41 -97 37 -502 -148 -342 -156 -1262 -576
-2111 -963 -1378 -629 -1485 -678 -1503 -678 -9 0 -547 111 -1196 246 -650
135 -1243 258 -1319 272 l-139 27 7 58 c11 105 68 256 127 340 11 15 16 27 11
27 -4 0 -253 51 -553 114 -493 102 -546 112 -558 97 -69 -87 -136 -245 -148
-347 -6 -44 -10 -54 -23 -50 -9 3 -162 35 -341 71 -371 76 -431 97 -517 183
-170 170 -173 438 -8 611 85 89 201 141 317 141 26 0 210 -34 410 -76 664
-138 2855 -593 3393 -705 292 -61 549 -110 572 -110 46 -1 43 -2 668 284 198
90 619 282 935 427 316 144 829 378 1140 520 311 142 742 339 958 438 242 110
406 190 424 208 74 69 78 189 9 268 -27 31 -81 52 -186 74 -55 12 -329 69
-610 127 -280 58 -627 130 -770 160 -1341 280 -2760 574 -2800 580 -32 4 -59
-2 -135 -33z m1071 -552 c503 -105 1218 -254 1589 -331 371 -77 727 -151 790
-164 63 -13 156 -33 205 -43 l90 -19 -45 -20 c-25 -11 -382 -174 -795 -363
-708 -323 -1033 -471 -2113 -964 l-453 -207 -1087 226 c-598 124 -1424 296
-1837 381 -412 86 -770 161 -795 168 l-44 11 214 92 c118 50 355 151 525 223
171 73 461 196 645 275 184 78 517 220 740 315 223 94 434 185 470 200 36 15
216 92 400 170 184 78 385 164 445 190 61 27 117 49 126 49 8 1 427 -85 930
-189z m-4811 -2950 c135 -27 255 -52 268 -55 l22 -5 0 -450 c0 -248 -2 -450
-4 -450 -2 0 -156 32 -342 71 -241 50 -356 78 -399 98 -157 74 -249 221 -249
396 0 170 88 315 238 392 48 24 146 51 196 52 14 1 135 -21 270 -49z m1059
-903 c101 -137 181 -250 179 -252 -3 -3 -760 153 -765 159 -2 2 83 85 189 185
149 141 195 178 204 169 6 -7 93 -125 193 -261z" />
        <path d="M6015 8580 c-165 -71 -293 -131 -285 -134 8 -2 258 -55 555 -116 297
-61 821 -170 1165 -241 344 -71 637 -132 652 -135 21 -4 78 17 230 87 112 51
241 109 288 130 47 21 78 40 70 43 -8 3 -233 50 -500 105 -366 76 -1319 273
-1855 385 -11 2 -153 -53 -320 -124z" />
    </g>
</svg>