<svg xmlns="http://www.w3.org/2000/svg" width="512" height="512" viewBox="0 0 512 512" version="1.1"><path d="" stroke="none" fill="#eeeeee" fill-rule="evenodd"/><path d="M 334.676 13.587 C 333.339 18.142, 320.787 59.800, 319.869 62.731 L 318.858 65.962 221.679 66.231 L 124.500 66.500 119.500 68.976 C 113.125 72.133, 107.133 78.125, 103.976 84.500 L 101.500 89.500 101.500 258.500 L 101.500 427.500 103.976 432.500 C 107.133 438.875, 113.125 444.867, 119.500 448.024 L 124.500 450.500 228 450.500 L 331.500 450.500 336.500 448.024 C 342.875 444.867, 348.867 438.875, 352.024 432.500 L 354.500 427.500 354.772 343.750 C 354.922 297.687, 355.276 260, 355.558 260 C 355.841 260, 371.919 272.363, 391.286 287.473 C 410.654 302.583, 426.632 314.563, 426.793 314.093 C 426.955 313.624, 419.403 287.897, 410.012 256.923 C 400.621 225.948, 393.128 200.132, 393.362 199.553 C 393.595 198.974, 414.067 182.750, 438.855 163.500 C 463.643 144.250, 483.941 128.162, 483.962 127.750 C 483.983 127.338, 458.462 126.993, 427.250 126.984 L 370.500 126.968 353.585 70.734 C 344.282 39.805, 336.348 13.864, 335.954 13.087 C 335.392 11.977, 335.118 12.085, 334.676 13.587 M 131.462 97.250 C 131.200 97.938, 131.102 170.950, 131.243 259.500 L 131.500 420.500 228 420.500 L 324.500 420.500 324.756 336.750 C 324.896 290.688, 324.762 253, 324.458 253 C 324.153 253, 306.038 266.938, 284.202 283.973 C 262.366 301.009, 244.371 314.572, 244.214 314.114 C 244.056 313.656, 251.613 287.944, 261.007 256.976 C 270.401 226.008, 277.891 200.182, 277.651 199.585 C 277.411 198.988, 256.933 182.750, 232.145 163.500 C 207.357 144.250, 187.059 128.162, 187.038 127.750 C 187.017 127.338, 212.537 126.996, 243.750 126.991 L 300.500 126.982 305.108 111.491 L 309.715 96 220.826 96 C 150.635 96, 131.837 96.263, 131.462 97.250" stroke="none" fill="#000" fill-rule="evenodd"/></svg>