<?xml version="1.0" encoding="UTF-8"?>
<svg xmlns="http://www.w3.org/2000/svg" xmlns:xlink="http://www.w3.org/1999/xlink" width="24px" height="24px" viewBox="0 0 24 24" version="1.1">
<g id="surface1">
<path style=" stroke:none;fill-rule:nonzero;fill:rgb(0%,0%,0%);fill-opacity:1;" d="M 18 2.484375 L 18 4.3125 C 20.277344 6.09375 21.75 8.878906 21.75 12 C 21.75 17.382812 17.382812 21.75 12 21.75 C 6.617188 21.75 2.25 17.382812 2.25 12 C 2.25 8.878906 3.722656 6.101562 6 4.3125 L 6 2.484375 C 2.851562 4.472656 0.75 7.996094 0.75 12 C 0.75 18.214844 5.785156 23.25 12 23.25 C 18.214844 23.25 23.25 18.214844 23.25 12 C 23.25 7.996094 21.148438 4.472656 18 2.484375 Z M 18 2.484375 "/>
<path style=" stroke:none;fill-rule:nonzero;fill:rgb(0%,0%,0%);fill-opacity:1;" d="M 12 0.75 C 11.585938 0.75 11.25 1.085938 11.25 1.5 L 11.25 12 C 11.25 12.414062 11.585938 12.75 12 12.75 C 12.414062 12.75 12.75 12.414062 12.75 12 L 12.75 1.5 C 12.75 1.085938 12.414062 0.75 12 0.75 Z M 12 0.75 "/>
</g>
</svg>
