<?xml version="1.0" encoding="UTF-8"?>
<svg xmlns="http://www.w3.org/2000/svg" xmlns:xlink="http://www.w3.org/1999/xlink" width="32px" height="32px" viewBox="0 0 32 32" version="1.1">
<g id="surface1">
<path style=" stroke:none;fill-rule:nonzero;fill:rgb(0%,0%,0%);fill-opacity:1;" d="M 24 3.3125 L 24 5.75 C 27.039062 8.125 29 11.835938 29 16 C 29 23.175781 23.175781 29 16 29 C 8.824219 29 3 23.175781 3 16 C 3 11.835938 4.960938 8.136719 8 5.75 L 8 3.3125 C 3.800781 5.960938 1 10.664062 1 16 C 1 24.289062 7.710938 31 16 31 C 24.289062 31 31 24.289062 31 16 C 31 10.664062 28.199219 5.960938 24 3.3125 Z M 24 3.3125 "/>
<path style=" stroke:none;fill-rule:nonzero;fill:rgb(0%,0%,0%);fill-opacity:1;" d="M 16 1 C 15.449219 1 15 1.449219 15 2 L 15 16 C 15 16.550781 15.449219 17 16 17 C 16.550781 17 17 16.550781 17 16 L 17 2 C 17 1.449219 16.550781 1 16 1 Z M 16 1 "/>
</g>
</svg>
