<?xml version="1.0"?>
<svg width="128" height="128" xmlns="http://www.w3.org/2000/svg" xmlns:svg="http://www.w3.org/2000/svg" version="1.1">

 <g class="layer">
  <title>Layer 1</title>
  <path d="m0,64.01l0,64l64.25,-0.25l64.25,-0.26l0.26,-63.75l0.25,-63.75l-64.5,0l-64.51,0l0,64.01m0.47,0.49c0,35.2 0.13,49.45 0.28,31.68c0.15,-17.78 0.15,-46.58 0,-64c-0.15,-17.42 -0.28,-2.88 -0.28,32.32m79.53,-41.5l0,10l-9.5,0l-9.5,0l0,4.5l0,4.5l9.47,0l9.46,0l0.29,10.75l0.28,10.75l4.75,0.3l4.75,0.31l0,-11.06l0,-11.05l9.5,0l9.5,0l0,-4.5l0,-4.5l-9.5,0l-9.5,0l0,-10l0,-10l-5,0l-5,0l0,10m-49.87,11.72c-2.1,0.4 -2.3,0.85 -1.79,3.99c0.72,4.45 0.7,4.43 4.5,3.67c3.22,-0.64 4.06,-2.87 2.55,-6.8c-0.61,-1.6 -1.01,-1.66 -5.26,-0.86m11.87,2.78c0,2.83 0.38,3.5 2,3.5c1.62,0 2,-0.67 2,-3.5c0,-2.83 -0.38,-3.5 -2,-3.5c-1.62,0 -2,0.67 -2,3.5m-18.25,7.22c-2.39,0.36 -2.75,0.87 -2.75,3.85c0,3.35 0.09,3.43 4.11,3.43c3.33,0 3.99,-0.3 3.5,-1.58c-0.34,-0.87 -0.61,-2.67 -0.61,-4c0,-1.33 -0.34,-2.35 -0.75,-2.27c-0.41,0.08 -1.99,0.34 -3.5,0.57m69.25,31.72c0,4.11 0.8,4.75 4.9,3.93c2.73,-0.55 3.1,-1.02 3.1,-3.99c0,-3.28 -0.12,-3.38 -4,-3.38c-3.89,0 -4,0.09 -4,3.44m-2.25,8.72c-3.09,1.13 -3.25,1.66 -1.56,5.35c0.97,2.14 1.65,2.5 3.75,1.98c3.88,-0.96 4.49,-2.04 3.08,-5.43c-1.39,-3.36 -1.33,-3.34 -5.27,-1.9m-71.75,5.34l0,4.5l24,0l24,0l0,-4.5l0,-4.5l-24,0l-24,0l0,4.5m59.38,-0.37c0.34,1.71 0.62,3.51 0.62,4c0,1.48 3.03,0.96 3.64,-0.63c1.06,-2.78 -0.53,-6.5 -2.78,-6.5c-1.83,0 -2.03,0.42 -1.48,3.13" fill="#ffffff" fill-rule="evenodd" id="svg_1"/>
  <path d="m80,23l0,10l-9.5,0l-9.5,0l0,4.5l0,4.5l9.47,0l9.46,0l0.29,10.75l0.28,10.75l4.75,0.3l4.75,0.31l0,-11.06l0,-11.05l9.5,0l9.5,0l0,-4.5l0,-4.5l-9.5,0l-9.5,0l0,-10l0,-10l-5,0l-5,0l0,10m-49.87,11.72c-2.1,0.4 -2.3,0.85 -1.79,3.99c0.72,4.45 0.7,4.43 4.5,3.67c3.22,-0.64 4.06,-2.87 2.55,-6.8c-0.61,-1.6 -1.01,-1.66 -5.26,-0.86m11.87,2.78c0,2.83 0.38,3.5 2,3.5c1.62,0 2,-0.67 2,-3.5c0,-2.83 -0.38,-3.5 -2,-3.5c-1.62,0 -2,0.67 -2,3.5m-18.25,7.22c-2.39,0.36 -2.75,0.87 -2.75,3.85c0,3.35 0.09,3.43 4.11,3.43c3.33,0 3.99,-0.3 3.5,-1.58c-0.34,-0.87 -0.61,-2.67 -0.61,-4c0,-1.33 -0.34,-2.35 -0.75,-2.27c-0.41,0.08 -1.99,0.34 -3.5,0.57m69.25,31.72c0,4.11 0.8,4.75 4.9,3.93c2.73,-0.55 3.1,-1.02 3.1,-3.99c0,-3.28 -0.12,-3.38 -4,-3.38c-3.89,0 -4,0.09 -4,3.44m-2.25,8.72c-3.09,1.13 -3.25,1.66 -1.56,5.35c0.97,2.14 1.65,2.5 3.75,1.98c3.88,-0.96 4.49,-2.04 3.08,-5.43c-1.39,-3.36 -1.33,-3.34 -5.27,-1.9m-71.75,5.34l0,4.5l24,0l24,0l0,-4.5l0,-4.5l-24,0l-24,0l0,4.5m59.38,-0.37c0.34,1.71 0.62,3.51 0.62,4c0,1.48 3.03,0.96 3.64,-0.63c1.06,-2.78 -0.53,-6.5 -2.78,-6.5c-1.83,0 -2.03,0.42 -1.48,3.13" fill="#000000" fill-rule="evenodd" id="svg_2"/>
 </g>
</svg>