<?xml version="1.0" standalone="no"?>
<!DOCTYPE svg PUBLIC "-//W3C//DTD SVG 20010904//EN"
 "http://www.w3.org/TR/2001/REC-SVG-20010904/DTD/svg10.dtd">
<svg version="1.0" xmlns="http://www.w3.org/2000/svg"
 width="512.000000pt" height="512.000000pt" viewBox="0 0 512.000000 512.000000"
 preserveAspectRatio="xMidYMid meet">

<g transform="translate(0.000000,512.000000) scale(0.100000,-0.100000)"
fill="#000000" stroke="none">
<path d="M3960 3827 c-49 -16 -133 -102 -148 -153 -9 -31 -12 -301 -12 -1116
0 -1204 -4 -1130 73 -1206 62 -61 104 -72 277 -72 173 0 215 11 277 72 77 76
73 2 73 1206 0 815 -3 1085 -12 1116 -16 55 -99 138 -154 154 -51 15 -325 14
-374 -1z"/>
<path d="M835 3811 c-22 -10 -52 -31 -67 -47 -61 -66 -58 2 -58 -1211 0 -1057
1 -1110 19 -1148 23 -49 64 -89 113 -109 54 -23 382 -23 436 0 49 20 90 60
113 109 18 38 19 91 19 1148 0 1213 3 1145 -58 1211 -55 58 -88 66 -292 66
-159 0 -191 -3 -225 -19z"/>
<path d="M1650 3817 c-49 -16 -133 -102 -148 -153 -9 -31 -12 -301 -12 -1116
0 -1204 -4 -1130 73 -1206 62 -61 104 -72 277 -72 173 0 215 11 277 72 77 76
73 2 73 1206 0 815 -3 1085 -12 1116 -16 55 -99 138 -154 154 -51 15 -325 14
-374 -1z"/>
<path d="M2420 3817 c-49 -16 -133 -102 -148 -153 -9 -31 -12 -301 -12 -1116
0 -1204 -4 -1130 73 -1206 62 -61 104 -72 277 -72 173 0 215 11 277 72 77 76
73 2 73 1206 0 815 -3 1085 -12 1116 -16 55 -99 138 -154 154 -51 15 -325 14
-374 -1z"/>
<path d="M3190 3817 c-49 -16 -133 -102 -148 -153 -9 -31 -12 -301 -12 -1116
0 -1204 -4 -1130 73 -1206 62 -61 104 -72 277 -72 173 0 215 11 277 72 77 76
73 2 73 1206 0 815 -3 1085 -12 1116 -16 55 -99 138 -154 154 -51 15 -325 14
-374 -1z"/>
</g>
</svg>
