<?xml version="1.0" standalone="no"?>
<!DOCTYPE svg PUBLIC "-//W3C//DTD SVG 20010904//EN"
 "http://www.w3.org/TR/2001/REC-SVG-20010904/DTD/svg10.dtd">
<svg version="1.0" xmlns="http://www.w3.org/2000/svg"
 width="1200.000000pt" height="1200.000000pt" viewBox="0 0 1200.000000 1200.000000"
 preserveAspectRatio="xMidYMid meet">

<g transform="translate(0.000000,1200.000000) scale(0.100000,-0.100000)"
fill="#000000" stroke="none">
<path d="M5920 11734 c-35 -14 -192 -101 -2460 -1363 -1766 -983 -2383 -1332
-2407 -1358 -18 -20 -37 -50 -42 -68 -5 -18 -3 -290 5 -640 28 -1313 48 -2570
65 -4010 11 -886 14 -1014 28 -1045 14 -30 35 -44 166 -110 233 -118 1219
-680 2525 -1440 366 -213 935 -544 1265 -735 346 -201 617 -364 640 -386 47
-45 100 -69 153 -69 39 0 79 18 179 81 79 50 4645 2579 4813 2666 118 61 138
75 156 109 l20 39 -7 1590 c-4 875 -7 2083 -8 2685 -1 602 -6 1112 -11 1134
-11 48 -52 93 -110 118 -60 27 -4754 2731 -4806 2769 -29 22 -54 31 -95 34
-29 3 -61 2 -69 -1z m975 -1919 c516 -764 976 -1446 1022 -1514 l85 -123
-1639 7 c-901 4 -2074 10 -2607 14 l-968 6 1583 1502 c871 826 1584 1501 1585
1500 1 -1 423 -627 939 -1392z m1614 20 c992 -572 1799 -1041 1792 -1043 -6
-2 -422 -134 -924 -293 -710 -225 -914 -286 -923 -276 -9 9 -1467 2168 -1754
2596 -62 93 -62 94 -29 75 19 -11 846 -488 1838 -1059z m-3759 781 c-14 -13
-558 -529 -1210 -1146 -652 -618 -1208 -1145 -1236 -1172 l-50 -49 -260 212
c-142 116 -303 250 -358 297 l-99 85 34 18 c19 9 745 414 1614 898 869 484
1582 881 1585 881 2 0 -7 -11 -20 -24z m5864 -4237 c4 -1150 6 -2093 3 -2095
-2 -2 -424 766 -938 1708 -514 941 -952 1744 -974 1784 -22 40 -37 75 -35 77
4 4 1913 613 1931 616 3 1 9 -940 13 -2090z m-8874 1773 c140 -115 254 -213
254 -218 -1 -5 -118 -589 -260 -1299 l-259 -1290 -7 155 c-4 85 -11 495 -18
910 -11 821 -27 1667 -34 1878 l-4 132 36 -29 c20 -17 152 -124 292 -239z
m4903 -369 c1035 -5 1387 -9 1385 -18 -2 -6 -608 -1038 -1348 -2293 l-1344
-2282 -17 28 c-14 22 -2569 4373 -2664 4536 l-29 49 1315 -6 c723 -4 1939 -10
2702 -14z m2704 -2018 c432 -792 873 -1601 980 -1798 108 -197 192 -361 189
-364 -7 -7 -4773 -564 -4791 -560 -8 1 2269 3882 2620 4466 l26 44 96 -174
c52 -96 448 -822 880 -1614z m-5703 -484 c718 -1224 1304 -2227 1302 -2229 -6
-5 -3397 447 -3416 456 -14 6 39 281 376 1952 460 2288 414 2064 424 2054 4
-5 595 -1010 1314 -2233z m6061 -2194 c-11 -6 -852 -474 -1870 -1038 -1475
-818 -1851 -1023 -1856 -1010 -17 45 -411 1572 -407 1576 5 6 4070 482 4123
484 28 0 28 -1 10 -12z m-5920 -288 c748 -100 1362 -183 1364 -185 6 -6 381
-1438 378 -1447 -2 -6 -293 161 -1777 1025 -289 168 -712 412 -940 543 -228
131 -419 242 -425 247 -6 6 -1 7 15 4 14 -3 637 -87 1385 -187z"/>
</g>
</svg>
