<?xml version="1.0" standalone="no"?>
<!DOCTYPE svg PUBLIC "-//W3C//DTD SVG 20010904//EN"
 "http://www.w3.org/TR/2001/REC-SVG-20010904/DTD/svg10.dtd">
<svg version="1.0" xmlns="http://www.w3.org/2000/svg"
 width="160.000000pt" height="160.000000pt" viewBox="0 0 160.000000 160.000000"
 preserveAspectRatio="xMidYMid meet">

<g transform="translate(0.000000,160.000000) scale(0.100000,-0.100000)"
fill="#000000" stroke="none">
<path d="M170 800 l0 -400 55 0 56 0 -3 304 c-2 167 0 303 3 301 3 -2 91 -139
195 -304 l189 -301 57 0 58 0 0 400 0 400 -55 0 -55 0 0 -307 c-1 -278 -2
-306 -16 -288 -8 11 -97 149 -196 308 l-182 287 -53 0 -53 0 0 -400z"/>
<path d="M904 978 c3 -13 52 -147 109 -298 l103 -275 44 0 43 0 104 280 c56
154 105 288 109 298 5 15 -2 17 -50 17 l-55 0 -71 -219 c-38 -120 -70 -223
-70 -230 0 -41 -24 18 -90 217 l-75 227 -54 3 c-52 3 -53 2 -47 -20z"/>
</g>
</svg>
