<?xml version="1.0" standalone="no"?>
<!DOCTYPE svg PUBLIC "-//W3C//DTD SVG 20010904//EN" "http://www.w3.org/TR/2001/REC-SVG-20010904/DTD/svg10.dtd">
<svg version="1.0" xmlns="http://www.w3.org/2000/svg" width="1024.000000pt" height="1024.000000pt"
        viewBox="0 0 1024.000000 1024.000000" preserveAspectRatio="xMidYMid meet">

        <g transform="translate(0.000000,1024.000000) scale(0.100000,-0.100000)" fill="#013E62" stroke="none">
                <path d="M3332 10059 c-63 -41 -66 -56 -72 -344 l-5 -260 -795 -123 c-539 -84
-806 -129 -830 -141 -23 -12 -43 -34 -59 -65 l-25 -48 42 -266 c25 -159 38
-269 32 -272 -5 -3 -159 -32 -342 -64 -183 -31 -356 -64 -385 -72 -56 -15 -94
-51 -112 -107 -10 -29 80 -550 694 -4033 476 -2696 712 -4009 724 -4029 26
-45 77 -75 128 -75 46 0 5805 1013 5859 1030 32 11 74 50 93 87 17 32 14 72
-19 253 -17 91 -30 168 -30 173 0 4 254 7 564 7 l563 0 33 22 c18 13 43 36 54
51 l21 28 3 3207 c2 2349 0 3218 -8 3247 -10 34 -136 164 -868 899 -471 472
-875 871 -896 887 l-39 29 -2146 0 -2146 0 -33 -21z m4118 -1076 c0 -766 1
-788 20 -828 13 -26 34 -49 59 -63 l39 -22 796 0 796 0 0 -3025 0 -3025 -2795
0 -2795 0 0 3875 0 3875 1940 0 1940 0 0 -787z m900 -18 l585 -585 -588 0
-587 0 0 585 c0 322 1 585 3 585 1 0 265 -263 587 -585z m-5090 -3477 c0
-3631 0 -3652 20 -3693 13 -26 34 -49 59 -63 l39 -22 1258 -1 c693 0 1254 -3
1247 -5 -7 -3 -639 -103 -1405 -223 l-1393 -218 -7 26 c-10 34 -1188 7590
-1188 7618 0 18 8 23 48 29 26 4 324 51 662 104 338 54 625 98 638 99 l22 1 0
-3652z m-1576 2710 c3 -18 256 -1637 561 -3598 620 -3972 557 -3620 650 -3655
l46 -18 462 72 c656 102 2331 364 3496 546 547 85 999 155 1005 155 10 0 58
-229 51 -238 -7 -8 -5491 -970 -5496 -964 -8 9 -1351 7623 -1346 7629 4 4 526
100 553 102 7 1 14 -14 18 -31z" />
                <path d="M4260 7428 c-82 -42 -113 -149 -62 -217 95 -128 282 -72 282 85 0 72
-60 138 -135 149 -30 5 -51 1 -85 -17z" />
                <path d="M5056 7440 c-120 -37 -142 -205 -36 -277 l33 -23 1749 0 c1594 0
1753 1 1784 16 49 23 77 68 82 128 4 57 -18 101 -71 140 l-28 21 -1742 2
c-962 1 -1755 -2 -1771 -7z" />
                <path d="M4250 6648 c-56 -38 -75 -73 -74 -133 0 -41 6 -60 26 -88 71 -92 188
-86 256 14 30 43 27 120 -6 166 -45 63 -141 82 -202 41z" />
                <path d="M5032 6653 c-47 -23 -75 -67 -80 -127 -4 -57 18 -101 71 -140 l28
-21 1759 0 1759 0 28 21 c45 34 73 82 73 128 0 53 -35 114 -80 137 -33 18 -99
19 -1780 19 -1587 0 -1748 -2 -1778 -17z" />
                <path d="M4288 5890 c-47 -14 -85 -48 -102 -90 -21 -53 -20 -75 5 -126 27 -56
72 -84 135 -84 193 0 209 270 19 303 -16 3 -42 2 -57 -3z" />
                <path d="M5057 5886 c-71 -26 -107 -76 -107 -148 0 -52 28 -101 72 -128 33
-20 54 -20 1789 -20 l1756 0 34 23 c48 32 71 81 66 140 -5 55 -29 93 -78 122
-34 20 -54 20 -1764 22 -1442 2 -1736 0 -1768 -11z" />
                <path d="M4265 5106 c-96 -42 -122 -177 -48 -248 77 -73 191 -59 241 30 72
129 -59 277 -193 218z" />
                <path d="M5029 5098 c-45 -25 -79 -83 -79 -133 0 -51 34 -108 80 -134 l38 -21
1742 0 1742 0 38 21 c46 26 80 83 80 134 0 51 -34 108 -80 134 l-38 21 -1743
0 -1744 0 -36 -22z" />
                <path d="M4242 4318 c-35 -25 -72 -90 -72 -129 0 -41 42 -112 79 -133 133 -77
291 81 211 212 -44 72 -151 96 -218 50z" />
                <path d="M5022 4320 c-100 -61 -96 -204 8 -264 35 -21 38 -21 1780 -21 1727 0
1745 0 1779 20 49 29 73 67 78 122 5 59 -18 108 -66 140 l-34 23 -1756 0
c-1735 0 -1756 0 -1789 -20z" />
                <path d="M4262 3554 c-55 -28 -86 -78 -86 -139 -1 -60 18 -95 74 -132 61 -42
157 -23 202 40 33 46 36 123 6 166 -12 19 -35 43 -49 54 -37 27 -106 32 -147
11z" />
                <path d="M5045 3556 c-37 -16 -82 -68 -91 -102 -10 -39 2 -100 25 -132 47 -67
-93 -62 1830 -62 1726 0 1742 0 1781 20 74 38 103 143 58 210 -13 18 -36 43
-51 54 l-28 21 -1747 2 c-1437 2 -1752 0 -1777 -11z" />
        </g>
</svg>