<?xml version="1.0" standalone="no"?>
<!DOCTYPE svg PUBLIC "-//W3C//DTD SVG 20010904//EN"
 "http://www.w3.org/TR/2001/REC-SVG-20010904/DTD/svg10.dtd">
<svg version="1.0" xmlns="http://www.w3.org/2000/svg"
 width="648.000000pt" height="648.000000pt" viewBox="0 0 648.000000 648.000000"
 preserveAspectRatio="xMidYMid meet">

<g transform="translate(0.000000,648.000000) scale(0.100000,-0.100000)"
fill="#000000" stroke="none">
<path d="M1046 6464 c-57 -21 -102 -58 -133 -112 l-28 -47 -3 -1072 -2 -1073
-109 0 c-65 0 -127 -6 -156 -15 -70 -21 -149 -79 -190 -140 -68 -103 -66 -61
-63 -1176 l3 -1004 31 -65 c37 -78 99 -141 174 -178 49 -24 68 -27 182 -30
l128 -4 2 -681 c3 -649 4 -684 22 -721 24 -47 75 -98 124 -123 35 -17 127 -18
2182 -21 1441 -2 2157 0 2180 7 70 20 127 68 160 133 l30 61 0 673 0 672 128
3 c115 4 132 7 183 32 70 34 142 109 177 185 l27 57 0 1030 0 1030 -27 57
c-35 76 -104 148 -175 183 -53 27 -69 30 -185 33 l-128 4 0 393 c0 217 -4 404
-9 417 -15 37 -1284 1482 -1315 1496 -21 9 -362 12 -1599 11 -1338 0 -1578 -3
-1611 -15z m3034 -914 c4 -555 7 -679 19 -696 33 -50 18 -49 641 -54 l585 -5
0 -315 0 -315 -2095 0 -2095 0 -3 1027 c-2 955 -1 1027 15 1030 9 2 672 3
1472 3 l1456 -1 5 -674z m-1500 -1760 c202 -58 374 -200 468 -386 69 -137 92
-278 92 -558 -1 -289 -21 -413 -91 -553 -82 -164 -227 -297 -392 -360 -116
-45 -183 -56 -332 -56 -234 1 -400 63 -550 205 -127 120 -199 250 -231 415
-20 105 -20 601 0 707 60 313 302 548 624 606 86 16 329 4 412 -20z m1748 10
c196 -40 374 -165 447 -313 41 -83 69 -232 47 -246 -7 -4 -104 -9 -215 -10
l-203 -2 -12 58 c-16 80 -58 135 -130 170 -51 25 -68 28 -157 28 -90 0 -106
-3 -158 -28 -32 -16 -69 -44 -85 -64 -23 -31 -27 -46 -27 -104 0 -58 3 -71 25
-94 53 -57 146 -102 400 -190 425 -148 575 -307 574 -605 -1 -85 -5 -117 -24
-165 -47 -122 -131 -210 -264 -275 -100 -49 -169 -67 -312 -81 -278 -27 -561
54 -722 205 -37 35 -82 88 -99 118 -37 61 -73 189 -73 260 l0 48 213 0 213 0
12 -70 c28 -163 129 -231 346 -231 54 -1 104 5 137 16 140 47 183 205 83 314
-43 49 -122 87 -326 160 -425 152 -577 269 -618 479 -17 83 -8 212 19 282 44
116 174 236 321 296 159 64 402 83 588 44z m997 -2865 l0 -610 -2095 0 -2095
0 -3 600 c-1 330 0 606 3 613 3 10 428 12 2097 10 l2093 -3 0 -610z"/>
<path d="M2191 3459 c-70 -28 -130 -89 -169 -170 -51 -108 -57 -157 -57 -449
1 -300 8 -347 73 -460 43 -74 111 -131 181 -152 25 -7 82 -13 126 -13 68 1 90
5 138 28 93 46 158 134 194 267 15 55 18 108 18 335 0 295 -5 335 -56 443 -35
73 -89 131 -151 164 -64 33 -221 37 -297 7z"/>
</g>
</svg>
