<?xml version="1.0" standalone="no"?>
<!DOCTYPE svg PUBLIC "-//W3C//DTD SVG 20010904//EN"
 "http://www.w3.org/TR/2001/REC-SVG-20010904/DTD/svg10.dtd">
<svg version="1.0" xmlns="http://www.w3.org/2000/svg"
 width="648.000000pt" height="648.000000pt" viewBox="0 0 648.000000 648.000000"
 preserveAspectRatio="xMidYMid meet">

<g transform="translate(0.000000,648.000000) scale(0.100000,-0.100000)"
fill="#000000" stroke="none">
<path d="M1046 6464 c-57 -21 -102 -58 -133 -112 l-28 -47 -3 -1072 -2 -1073
-108 0 c-68 0 -128 -6 -159 -15 -67 -20 -148 -82 -190 -144 -66 -98 -64 -61
-61 -1172 l3 -1004 31 -65 c37 -78 99 -141 174 -178 49 -24 68 -27 182 -30
l128 -4 2 -681 c3 -649 4 -684 22 -721 24 -47 75 -98 124 -123 35 -17 126 -18
2191 -21 l2154 -2 51 23 c64 30 102 68 132 132 l24 50 0 671 0 672 128 3 c115
4 132 7 183 32 70 34 142 109 177 185 l27 57 0 1030 0 1030 -27 57 c-35 76
-104 148 -175 183 -53 27 -69 30 -185 33 l-128 4 0 393 c0 217 -4 404 -9 417
-15 37 -1284 1482 -1315 1496 -21 9 -362 12 -1599 11 -1338 0 -1578 -3 -1611
-15z m3034 -914 c4 -555 7 -679 19 -696 33 -50 18 -49 641 -54 l585 -5 0 -315
0 -315 -2095 0 -2095 0 -3 1020 c-1 561 0 1025 2 1030 2 7 501 10 1472 10
l1469 0 5 -675z m-1466 -1966 c115 -31 232 -103 291 -181 41 -54 70 -128 79
-205 l7 -58 -174 0 -175 0 -7 46 c-8 58 -71 127 -130 143 -52 14 -148 14 -196
0 -108 -33 -158 -158 -92 -231 27 -30 133 -80 283 -133 264 -93 390 -177 452
-303 32 -64 33 -72 33 -182 0 -98 -3 -122 -22 -163 -52 -111 -143 -186 -287
-234 -74 -25 -94 -27 -241 -27 -178 0 -236 11 -360 68 -172 80 -269 211 -276
373 l-3 58 172 3 172 2 0 -27 c0 -88 59 -171 138 -197 104 -33 236 -26 299 17
59 40 79 119 49 191 -25 59 -87 94 -291 166 -257 90 -406 184 -460 291 -14 26
-29 79 -35 117 -38 242 140 435 441 481 85 13 260 5 333 -15z m1371 0 c139
-37 261 -125 343 -248 94 -140 118 -270 109 -580 -6 -209 -17 -264 -70 -375
-46 -96 -168 -216 -267 -265 -180 -88 -424 -89 -605 -3 -172 83 -294 242 -330
433 -21 108 -20 468 1 572 39 195 184 370 365 443 125 50 318 60 454 23z
m-2385 -541 c0 -605 -3 -634 -61 -744 -63 -118 -205 -215 -352 -239 -96 -17
-254 -7 -338 19 -140 44 -240 137 -278 256 -26 85 -37 181 -19 187 7 3 85 6
174 7 l161 3 6 -52 c8 -68 40 -118 91 -141 97 -44 187 -12 239 86 22 39 22 49
25 603 l3 562 174 0 175 0 0 -547z m3670 67 c151 -264 278 -480 282 -480 5 0
8 216 8 480 l0 480 175 0 175 0 0 -760 0 -760 -177 0 -178 0 -275 480 c-151
264 -278 480 -282 480 -4 0 -6 -215 -5 -477 l2 -478 -177 -3 -178 -2 0 760 0
760 178 0 177 -1 275 -479z m55 -2175 l0 -610 -2095 0 -2095 0 -3 600 c-1 330
0 606 3 613 3 10 428 12 2097 10 l2093 -3 0 -610z"/>
<path d="M3725 3331 c-95 -25 -154 -83 -197 -190 -20 -51 -22 -78 -26 -282 -4
-244 3 -302 51 -397 83 -167 343 -192 453 -43 58 78 75 152 81 346 7 200 -7
324 -43 406 -30 65 -83 121 -137 144 -45 18 -141 27 -182 16z"/>
</g>
</svg>
