<?xml version="1.0" standalone="no"?>
<!DOCTYPE svg PUBLIC "-//W3C//DTD SVG 20010904//EN" "http://www.w3.org/TR/2001/REC-SVG-20010904/DTD/svg10.dtd">
<svg version="1.0" xmlns="http://www.w3.org/2000/svg" width="512.000000pt" height="512.000000pt"
    viewBox="0 0 512.000000 512.000000" preserveAspectRatio="xMidYMid meet">

    <g transform="translate(0.000000,512.000000) scale(0.100000,-0.100000)" fill="#013E62" stroke="none">
        <path d="M592 4360 c-18 -11 -41 -34 -52 -52 -20 -33 -20 -54 -20 -1749 l0
-1716 25 -34 c14 -19 28 -42 31 -51 6 -17 73 -18 1218 -18 l1212 0 64 65 64
65 -392 0 -392 0 0 205 0 205 490 0 490 0 0 -95 c0 -52 3 -95 8 -95 4 0 63 59
131 131 l124 130 -34 35 c-24 25 -41 34 -66 34 -31 0 -33 2 -33 37 0 30 -9 46
-57 97 -32 34 -61 62 -65 64 -5 2 -8 -42 -8 -97 l0 -101 -490 0 -490 0 0 210
0 210 385 0 c234 0 385 4 385 9 0 6 -25 37 -56 70 l-56 61 -329 0 -329 0 0
225 0 225 268 0 267 0 40 41 c22 23 63 52 90 65 l50 24 -357 0 -358 0 0 245 0
245 490 0 490 0 0 -240 0 -240 70 0 70 0 0 240 0 240 500 0 500 0 0 -240 0
-240 65 0 65 0 0 853 c0 833 -1 853 -20 885 -11 18 -34 41 -52 52 -33 20 -55
20 -1968 20 -1913 0 -1935 0 -1968 -20z m1628 -340 l0 -230 -485 0 -485 0 0
230 0 230 485 0 485 0 0 -230z m1110 0 l0 -230 -490 0 -490 0 0 230 0 230 490
0 490 0 0 -230z m1138 -3 l2 -227 -502 2 -503 3 -3 228 -2 227 502 -2 503 -3
3 -228z m-3348 -597 l0 -240 -235 0 -235 0 0 240 0 240 235 0 235 0 0 -240z
m1100 0 l0 -240 -485 0 -485 0 0 240 0 240 485 0 485 0 0 -240z m1110 0 l0
-240 -490 0 -490 0 0 240 0 240 490 0 490 0 0 -240z m1140 0 l0 -240 -502 2
-503 3 -3 238 -2 237 505 0 505 0 0 -240z m-3350 -615 l0 -245 -235 0 -235 0
0 245 0 245 235 0 235 0 0 -245z m1100 0 l0 -245 -485 0 -485 0 0 245 0 245
485 0 485 0 0 -245z m-1100 -600 l0 -225 -235 0 -235 0 0 225 0 225 235 0 235
0 0 -225z m1100 0 l0 -225 -485 0 -485 0 0 225 0 225 485 0 485 0 0 -225z
m-1100 -575 l0 -210 -235 0 -235 0 0 210 0 210 235 0 235 0 0 -210z m1100 0
l0 -210 -485 0 -485 0 0 210 0 210 485 0 485 0 0 -210z m-1100 -555 l0 -205
-235 0 -235 0 0 205 0 205 235 0 235 0 0 -205z m1100 0 l0 -205 -485 0 -485 0
0 205 0 205 485 0 485 0 0 -205z" />
        <path d="M3152 2370 c-18 -11 -40 -35 -49 -55 -32 -67 -26 -74 402 -535 218
-234 394 -430 393 -436 -2 -6 -182 -197 -400 -424 -312 -323 -399 -419 -404
-445 -7 -42 16 -98 52 -122 27 -17 70 -18 830 -18 868 0 834 -2 867 55 14 23
17 56 17 180 l0 152 -34 34 c-26 26 -42 34 -70 34 -85 0 -126 -52 -126 -160
l0 -60 -572 0 -573 0 76 78 c401 410 609 634 617 665 16 56 3 84 -71 165 -39
43 -186 201 -327 352 -140 152 -264 286 -274 298 l-19 22 571 0 572 0 0 -96
c0 -114 15 -155 67 -179 47 -23 98 -12 135 27 l28 30 0 193 c0 190 0 192 -25
219 -13 14 -36 31 -50 36 -17 6 -318 10 -813 10 -768 0 -788 -1 -820 -20z" />
    </g>
</svg>