<svg xmlns="http://www.w3.org/2000/svg" width="512" height="512" viewBox="0 0 512 512" version="1.1">
<path d="" stroke="none" fill="#000" fill-rule="evenodd"/>
<path d="M 60 61.128 C 45.536 62.085, 37.256 65.857, 27.756 75.817 C 24.718 79.002, 21.052 83.937, 19.609 86.785 C 13.881 98.088, 14.031 94.577, 14.015 218.114 C 14.005 291.274, 14.363 333.643, 15.021 337.109 C 16.616 345.521, 21.331 354.447, 27.715 361.141 C 34.132 367.870, 38.763 370.913, 47.580 374.194 C 53.346 376.339, 54.826 376.405, 104.481 376.738 L 155.462 377.080 157.559 384.790 C 163.594 406.977, 177.039 426.838, 195.332 440.591 C 215.214 455.538, 243.557 463.245, 267.113 460.109 C 290.898 456.942, 308.820 448.532, 325.637 432.648 C 340.183 418.909, 350.485 401.733, 354.627 384.315 L 356.335 377.129 407.418 376.770 C 457.218 376.421, 458.649 376.356, 464.420 374.201 C 467.676 372.985, 472.176 370.914, 474.420 369.599 C 480.154 366.238, 489.271 356.372, 492.461 350.077 C 498.053 339.042, 497.965 341.137, 497.965 218.500 C 497.965 95.863, 498.053 97.958, 492.461 86.923 C 489.034 80.161, 480.112 70.778, 473.569 67.057 C 461.934 60.439, 477.134 60.899, 263.287 60.690 C 156.704 60.585, 65.225 60.783, 60 61.128 M 57.198 98.667 C 50.619 101.921, 51 94.552, 51 218.500 C 51 318.754, 51.172 331.431, 52.566 334.128 C 55.563 339.924, 56.286 340, 108.468 340 C 153.068 340, 156 339.892, 156.006 338.250 C 156.010 337.288, 157.715 331.550, 159.796 325.500 C 163.583 314.489, 168.797 304.661, 175.577 295.750 L 179.192 291 170.056 291 C 162.864 291, 160.078 290.570, 156.961 288.980 C 144.850 282.802, 144.236 265.245, 155.874 257.865 L 160.392 255 193.236 255 C 230.595 255, 231.428 255.157, 236.749 263.197 L 239.500 267.354 239.500 301 L 239.500 334.646 236.749 338.803 C 229.567 349.657, 213.464 349.703, 206.309 338.890 C 204.256 335.788, 203.478 333.118, 203.037 327.660 L 202.458 320.500 200.018 325 C 198.675 327.475, 196.742 331.300, 195.722 333.500 C 188.898 348.214, 189.618 372.446, 197.332 387.669 C 213.432 419.440, 251.823 432.704, 283.770 417.532 C 302.248 408.757, 314.969 393.035, 319.618 373.230 C 321.848 363.728, 321.080 346.778, 318.022 338 C 314.716 328.509, 310.484 321.554, 303.480 314.100 C 295.907 306.041, 293.769 302.057, 293.769 296 C 293.769 282.692, 308.015 273.876, 319.790 279.897 C 323.940 282.020, 333.626 291.828, 339.281 299.633 C 346.066 309.001, 353.617 326.111, 355.578 336.563 L 356.223 340 403.710 340 C 445.591 340, 451.605 339.807, 454.643 338.365 C 461.404 335.157, 461 342.761, 461 218.597 C 461 135.709, 460.696 105.427, 459.846 103.561 C 459.211 102.168, 457.524 100.234, 456.096 99.264 C 453.640 97.595, 442.870 97.487, 257 97.267 C 76.959 97.054, 60.223 97.171, 57.198 98.667 M 82.655 145.459 C 77.704 147.224, 74.202 150.490, 71.890 155.500 C 68.678 162.460, 70.029 169.963, 75.477 175.411 C 78.557 178.490, 86.092 181.205, 162.175 206.642 L 245.500 234.500 256.500 234.405 L 267.500 234.310 349.716 206.748 C 394.934 191.588, 433.258 178.240, 434.880 177.086 C 438.513 174.499, 442.007 167.532, 441.978 162.934 C 441.917 153.388, 432.573 144.042, 423.053 144.006 C 422.256 144.003, 384.344 156.405, 338.803 171.566 L 256 199.131 173.197 171.566 C 127.656 156.405, 89.519 144.020, 88.447 144.044 C 87.376 144.068, 84.770 144.705, 82.655 145.459" stroke="none" fill="#000" fill-rule="evenodd"/></svg>