<?xml version="1.0" standalone="no"?>
<!DOCTYPE svg PUBLIC "-//W3C//DTD SVG 20010904//EN"
 "http://www.w3.org/TR/2001/REC-SVG-20010904/DTD/svg10.dtd">
<svg version="1.0" xmlns="http://www.w3.org/2000/svg"
 width="512.000000pt" height="512.000000pt" viewBox="0 0 512.000000 512.000000"
 preserveAspectRatio="xMidYMid meet">

<g transform="translate(0.000000,512.000000) scale(0.100000,-0.100000)"
fill="#b5b5b6" stroke="none">
<path d="M2483 5026 c-62 -7 -116 -15 -119 -19 -6 -6 23 -237 32 -262 3 -6
104 -10 297 -10 263 0 304 -2 417 -23 401 -75 741 -231 1050 -482 117 -96 169
-148 154 -158 -6 -4 -74 -47 -152 -97 -106 -67 -137 -92 -126 -98 9 -5 99 -35
202 -67 103 -32 246 -77 317 -100 221 -71 265 -83 271 -78 3 3 14 89 24 189
11 101 30 283 44 404 13 121 23 221 21 223 -5 5 -48 -20 -185 -109 -69 -44
-131 -83 -137 -86 -7 -3 -57 36 -110 85 -113 104 -180 159 -278 228 -498 352
-1138 522 -1722 460z"/>
<path d="M2370 4239 c-439 -36 -819 -174 -962 -350 -65 -80 -72 -105 -78 -299
l-5 -175 -35 -3 c-75 -6 -303 -43 -387 -63 -338 -79 -572 -224 -629 -392 -12
-36 -14 -105 -12 -408 3 -360 3 -364 27 -409 100 -191 384 -331 813 -401 l146
-24 4 -90 c4 -108 33 -178 106 -253 136 -140 440 -258 784 -307 43 -6 52 -12
92 -63 48 -62 177 -192 241 -243 193 -152 429 -252 674 -284 463 -62 907 92
1222 422 291 307 421 700 369 1123 -47 377 -279 743 -611 961 -75 50 -78 53
-71 83 4 17 7 177 7 356 l0 325 -27 57 c-73 157 -263 277 -571 363 -95 26
-323 63 -460 74 -147 13 -483 12 -637 0z m762 -298 c221 -35 378 -80 500 -143
70 -36 138 -94 138 -118 0 -25 -70 -84 -141 -119 -147 -74 -330 -121 -584
-151 -455 -54 -977 5 -1260 141 -159 77 -191 128 -117 189 102 85 331 162 599
200 194 27 208 28 488 24 189 -2 281 -8 377 -23z m-1800 -865 c12 -148 172
-308 391 -392 l70 -27 -104 -41 -104 -41 -145 2 c-266 3 -576 69 -754 161 -77
40 -136 91 -136 117 0 10 16 33 36 52 88 83 314 162 584 203 169 27 157 29
162 -34z m2133 -157 c485 -57 873 -405 971 -870 23 -113 23 -306 0 -419 -69
-327 -285 -609 -579 -757 -366 -184 -793 -158 -1132 70 -84 56 -226 197 -284
281 -154 224 -216 462 -191 729 13 133 43 234 109 366 168 334 471 544 871
605 52 7 148 6 235 -5z"/>
<path d="M3298 2509 l-3 -91 -70 -25 c-169 -61 -259 -175 -259 -328 0 -84 32
-152 103 -218 56 -51 114 -81 316 -163 38 -16 86 -45 107 -65 32 -30 38 -43
38 -76 0 -74 -81 -123 -203 -123 -72 0 -182 24 -254 56 -31 14 -58 23 -60 20
-3 -3 -18 -53 -33 -111 l-28 -106 22 -14 c35 -23 156 -55 236 -63 l75 -7 3
-93 3 -92 99 0 100 0 0 99 0 99 35 6 c118 22 243 124 285 231 31 79 32 189 3
256 -41 91 -152 175 -305 233 -161 61 -238 113 -238 162 0 74 64 114 179 114
68 0 217 -32 235 -50 6 -6 18 -10 27 -10 13 0 22 20 38 78 39 147 41 136 -26
160 -32 12 -94 27 -138 33 -44 6 -83 13 -87 15 -5 3 -8 41 -8 85 l0 79 -95 0
-94 0 -3 -91z"/>
<path d="M310 1412 c0 -17 9 -109 19 -204 11 -95 29 -267 42 -383 12 -116 24
-212 26 -215 2 -2 64 56 138 130 l134 134 99 -95 c423 -406 1010 -655 1622
-686 l130 -6 0 146 0 147 -29 0 c-15 0 -86 5 -157 10 -518 41 -1005 257 -1374
609 l-85 81 140 134 c96 92 135 136 125 139 -8 3 -91 13 -185 21 -267 25 -556
55 -602 62 -43 6 -43 6 -43 -24z"/>
</g>
</svg>
