<?xml version="1.0" standalone="no"?>
<!DOCTYPE svg PUBLIC "-//W3C//DTD SVG 20010904//EN"
 "http://www.w3.org/TR/2001/REC-SVG-20010904/DTD/svg10.dtd">
<svg version="1.0" xmlns="http://www.w3.org/2000/svg"
 width="512.000000pt" height="512.000000pt" viewBox="0 0 512.000000 512.000000"
 preserveAspectRatio="xMidYMid meet">

<g transform="translate(0.000000,512.000000) scale(0.100000,-0.100000)"
fill="#013E62" stroke="none">
<path d="M870 5080 l-285 -5 -58 -28 c-62 -31 -94 -66 -129 -143 l-23 -49 -3
-2270 c-2 -2097 -1 -2274 14 -2326 26 -88 71 -141 151 -181 l68 -33 1950 0
c2204 0 1998 -8 2089 82 95 93 89 48 90 708 l1 580 80 3 c43 2 85 8 92 14 18
15 19 1568 1 1586 -7 7 -41 12 -84 12 -47 0 -76 4 -81 13 -4 6 -9 149 -10 317
-2 340 -5 367 -43 461 -68 167 -66 166 -585 695 -49 50 -162 166 -250 258
l-159 167 -121 59 c-66 32 -147 64 -180 71 -63 13 -1935 19 -2525 9z m827
-606 c-188 -193 -216 -254 -166 -364 56 -123 165 -174 407 -190 287 -18 362
-70 348 -240 -3 -41 -9 -85 -12 -97 -4 -13 -2 -23 3 -23 15 0 314 292 324 317
5 13 5 33 0 46 -7 17 -502 530 -667 690 -5 4 255 7 576 5 649 -3 612 0 680
-70 70 -74 70 -73 70 -425 1 -241 4 -327 14 -356 32 -89 110 -167 190 -188 25
-7 161 -12 341 -13 295 -3 301 -3 339 -26 59 -36 84 -62 108 -116 20 -44 22
-66 22 -219 l1 -170 -1167 -3 c-643 -1 -1168 1 -1168 6 0 4 59 66 131 137 144
142 179 197 179 275 -1 91 -56 171 -152 217 -77 38 -140 51 -283 58 -294 15
-376 88 -334 299 7 31 9 59 6 62 -3 3 -67 -54 -142 -127 -75 -73 -144 -139
-154 -146 -10 -6 -24 -25 -30 -42 -10 -24 -10 -34 3 -57 8 -16 159 -173 335
-349 177 -176 321 -323 321 -327 0 -4 -118 -8 -262 -10 l-263 -3 -46 -27 c-62
-37 -103 -85 -128 -153 -20 -54 -21 -71 -21 -625 l0 -569 24 -53 c28 -64 78
-118 137 -149 l44 -24 1479 -3 c1023 -1 1482 -6 1486 -13 8 -12 4 -679 -3
-722 -10 -51 -55 -114 -104 -143 l-48 -29 -1548 -3 -1547 -2 -48 24 c-57 29
-96 68 -116 118 -14 33 -16 240 -16 1913 l0 1876 25 49 c14 27 40 60 58 74 70
53 81 55 514 55 l402 1 -142 -146z m354 -1895 c56 -19 69 -36 69 -91 0 -55 -6
-58 -71 -28 -53 24 -126 26 -157 4 -29 -20 -30 -76 -2 -104 11 -11 57 -37 103
-58 132 -62 177 -127 164 -239 -15 -136 -184 -217 -351 -169 -75 22 -96 44
-96 101 0 58 13 63 78 30 101 -51 213 -29 220 43 5 50 -13 69 -116 121 -53 27
-107 60 -119 73 -94 100 -54 268 74 313 47 17 158 19 204 4z m597 -341 l-3
-343 -44 -3 c-25 -2 -55 -1 -68 3 l-23 5 0 334 c0 183 3 336 7 339 3 4 35 7
70 7 l63 0 -2 -342z m782 312 c24 -14 55 -41 68 -60 21 -30 23 -44 20 -106 -3
-58 -8 -77 -30 -106 -15 -19 -41 -41 -57 -48 l-31 -12 33 -37 c38 -42 132
-254 123 -277 -4 -12 -21 -14 -73 -12 l-67 3 -48 115 c-54 131 -79 160 -139
160 l-39 0 0 -135 c0 -153 2 -150 -91 -143 l-44 3 -3 329 c-2 245 1 332 10
343 10 12 41 14 167 11 144 -3 159 -5 201 -28z m875 -25 l0 -50 -127 -3 -128
-3 0 -79 0 -80 98 0 c53 0 104 -5 112 -10 9 -5 15 -25 15 -50 0 -25 -6 -45
-15 -50 -8 -5 -59 -10 -112 -10 l-98 0 0 -95 0 -95 130 0 129 0 6 -34 c4 -19
2 -43 -4 -55 -11 -20 -19 -21 -194 -21 -129 0 -187 4 -195 12 -9 9 -12 98 -12
338 0 180 3 330 7 334 4 3 93 5 197 4 l191 -3 0 -50z"/>
<path d="M3190 2375 l0 -95 50 0 c73 0 115 20 129 63 27 80 -17 127 -115 127
l-64 0 0 -95z"/>
</g>
</svg>
