<?xml version="1.0" standalone="no"?>
<!DOCTYPE svg PUBLIC "-//W3C//DTD SVG 20010904//EN"
 "http://www.w3.org/TR/2001/REC-SVG-20010904/DTD/svg10.dtd">
<svg version="1.0" xmlns="http://www.w3.org/2000/svg"
 width="834.000000pt" height="844.000000pt" viewBox="0 0 834.000000 844.000000"
 preserveAspectRatio="xMidYMid meet">

<g transform="translate(0.000000,844.000000) scale(0.100000,-0.100000)"
fill="#00778F" stroke="none">
<path d="M1390 8379 c-487 -5 -483 -5 -594 -61 -115 -58 -202 -177 -232 -317
-12 -56 -14 -634 -14 -3806 l1 -3740 24 -75 c58 -175 176 -284 352 -326 62
-15 342 -17 3212 -16 1730 0 3176 3 3215 7 149 14 299 121 372 266 30 61 35
82 42 181 5 62 8 497 7 965 l-1 853 127 0 c108 0 130 3 149 18 l23 19 1 1299
1 1299 -22 23 c-21 20 -31 22 -148 22 -123 0 -125 0 -127 23 0 12 -2 240 -4
507 -3 530 -7 578 -69 749 -71 200 -157 331 -330 507 -44 45 -174 179 -290
298 -115 120 -275 284 -355 366 -80 82 -217 222 -305 313 -88 90 -205 210
-259 266 -167 172 -365 280 -626 341 l-95 23 -1800 1 c-990 1 -2005 -1 -2255
-5z m3712 -806 c83 -39 149 -106 191 -193 l31 -65 2 -522 c2 -562 2 -559 57
-668 34 -69 115 -153 184 -192 113 -63 126 -64 658 -66 l480 -3 66 -30 c78
-37 157 -112 194 -183 35 -70 44 -158 43 -433 l-1 -228 -2406 0 c-2641 0
-2481 3 -2601 -61 -130 -69 -219 -205 -241 -364 -7 -53 -9 -385 -7 -980 l3
-900 41 -85 c73 -152 202 -254 355 -279 46 -8 772 -11 2457 -11 l2390 0 5 -27
c3 -16 4 -275 3 -578 -2 -541 -7 -619 -37 -678 -30 -58 -91 -125 -142 -155
-111 -66 76 -62 -2695 -60 l-2517 3 -65 31 c-85 42 -155 110 -194 193 l-31 66
0 3105 0 3105 31 65 c52 111 114 166 236 210 52 19 95 19 1748 17 l1695 -2 67
-32z m-1773 -3342 c95 -30 111 -49 111 -135 0 -103 -4 -106 -90 -67 -97 45
-181 59 -240 39 -74 -24 -111 -104 -77 -165 19 -35 72 -70 203 -132 199 -95
267 -177 268 -321 1 -95 -16 -154 -63 -216 -91 -121 -267 -177 -458 -145 -82
14 -187 60 -202 90 -12 21 -15 139 -5 165 9 23 16 21 112 -26 84 -42 88 -43
187 -43 96 0 104 2 138 28 23 17 41 42 48 66 26 88 -10 130 -194 221 -221 108
-277 177 -277 340 1 135 53 226 163 280 109 53 248 61 376 21z m972 -1 c18
-10 19 -27 19 -564 0 -496 -2 -554 -16 -560 -29 -11 -189 -7 -202 6 -9 9 -12
147 -12 560 l0 549 23 9 c31 12 164 12 188 0z m1249 -19 c143 -47 210 -137
210 -280 0 -130 -46 -213 -148 -269 l-63 -34 34 -24 c19 -13 48 -43 65 -68 44
-67 165 -355 166 -396 l1 -35 -95 -3 c-52 -2 -105 0 -116 2 -17 5 -36 41 -89
173 -72 180 -101 233 -140 259 -33 22 -90 34 -131 27 l-34 -6 0 -216 c0 -156
-3 -220 -12 -229 -8 -8 -46 -12 -103 -12 -57 0 -95 4 -103 12 -9 9 -12 144
-12 548 0 294 4 540 8 546 21 31 48 35 272 31 198 -3 233 -7 290 -26z m1499
20 c19 -12 27 -121 12 -150 -11 -20 -17 -21 -221 -21 l-210 0 0 -140 0 -140
180 0 c207 0 195 6 195 -98 0 -45 -5 -66 -15 -72 -8 -5 -93 -10 -187 -10
l-173 0 0 -160 0 -160 208 0 c148 0 211 -3 220 -12 7 -7 12 -40 12 -78 0 -38
-5 -71 -12 -78 -9 -9 -93 -12 -315 -12 -290 0 -304 1 -323 20 -19 19 -20 33
-20 548 0 290 4 532 8 538 20 30 52 33 337 34 160 0 296 -4 304 -9z"/>
<path d="M5210 3899 l0 -161 103 4 c85 3 108 7 140 27 53 33 70 70 65 147 -7
109 -61 144 -222 144 l-86 0 0 -161z"/>
</g>
</svg>
