<?xml version="1.0" standalone="no"?>
<!DOCTYPE svg PUBLIC "-//W3C//DTD SVG 20010904//EN"
 "http://www.w3.org/TR/2001/REC-SVG-20010904/DTD/svg10.dtd">
<svg version="1.0" xmlns="http://www.w3.org/2000/svg"
 width="512.000000pt" height="512.000000pt" viewBox="0 0 512.000000 512.000000"
 preserveAspectRatio="xMidYMid meet">

<g transform="translate(0.000000,512.000000) scale(0.100000,-0.100000)"
fill="#000000" stroke="none">
<path d="M1169 2985 l-904 -464 -3 -1249 -2 -1249 257 -6 c141 -4 1180 -7
2310 -7 l2053 0 0 1298 0 1297 -193 59 c-105 32 -268 80 -362 106 -93 26 -226
66 -295 88 -69 22 -141 45 -160 50 -33 9 -1763 529 -1786 536 -6 3 -418 -204
-915 -459z m2371 -273 l1135 -307 3 -153 c2 -143 1 -153 -15 -148 -10 3 -315
76 -678 161 -363 86 -840 199 -1060 251 -220 52 -442 104 -492 116 l-93 21 0
190 0 189 33 -6 c17 -4 543 -145 1167 -314z m-1700 99 l0 -189 -42 -17 c-24
-9 -349 -140 -724 -291 -374 -151 -684 -274 -687 -274 -4 0 -7 65 -7 144 l0
143 728 336 c400 185 728 337 730 337 1 0 2 -85 2 -189z m970 -445 c239 -53
701 -154 1025 -225 325 -71 647 -142 718 -157 l127 -28 0 -152 c0 -140 -1
-152 -17 -148 -10 2 -142 27 -293 54 -151 28 -320 59 -375 70 -55 10 -176 33
-270 50 -93 18 -442 82 -775 144 l-605 112 -3 193 c-2 180 -1 192 15 187 10
-3 214 -48 453 -100z m-977 -306 c-5 -4 -327 -107 -718 -230 -390 -122 -716
-225 -723 -227 -9 -4 -12 29 -12 143 l0 149 728 272 727 271 3 -186 c1 -102
-1 -188 -5 -192z m719 -195 c379 -64 2116 -355 2122 -355 3 0 6 -68 6 -151 l0
-152 -52 6 c-29 3 -273 35 -543 72 -269 36 -760 102 -1090 146 -330 43 -612
82 -627 85 l-28 6 0 189 c0 104 2 189 5 189 2 0 96 -16 207 -35z m-712 -174
c0 -188 0 -189 -22 -194 -57 -14 -1428 -327 -1433 -327 -3 0 -5 65 -5 145 l0
144 43 13 c75 23 1402 405 1410 407 4 0 7 -84 7 -188z m705 -381 c94 -11 382
-45 640 -75 259 -31 565 -66 680 -80 116 -13 327 -38 470 -55 143 -16 279 -33
303 -36 l42 -6 0 -149 0 -149 -37 5 c-21 3 -533 46 -1138 95 -605 50 -1115 93
-1132 96 l-33 5 0 184 c0 170 1 185 18 185 9 0 94 -9 187 -20z m-705 -180 c0
-104 -1 -190 -3 -190 -1 0 -320 -45 -707 -100 -388 -55 -715 -100 -727 -100
-23 0 -23 1 -23 144 l0 143 723 146 c397 80 725 145 730 146 4 1 7 -84 7 -189z
m1050 -400 c173 -11 479 -32 680 -45 201 -13 509 -33 685 -45 176 -11 344 -23
373 -26 l52 -5 0 -150 c0 -112 -3 -149 -12 -149 -7 0 -224 7 -483 15 -258 8
-688 21 -955 30 -267 8 -523 17 -570 20 -47 2 -138 5 -202 5 l-118 0 0 188 c0
104 2 191 4 193 5 5 45 2 546 -31z m-1052 -163 c1 -103 -1 -187 -5 -187 -5 0
-163 -9 -353 -20 -190 -10 -482 -26 -650 -35 -168 -8 -338 -18 -378 -21 l-73
-6 3 148 3 148 155 17 c427 47 1247 140 1260 143 33 8 35 -2 38 -187z"/>
</g>
</svg>
