<svg xmlns="http://www.w3.org/2000/svg" width="512" height="512" viewBox="0 0 512 512" version="1.1"><path d="" stroke="none" fill="#6c5ca4" fill-rule="evenodd"/><path d="M 244.434 13.379 C 234.633 17.942, 234.381 18.423, 202.340 93.500 C 186.144 131.450, 172.558 162.836, 172.149 163.247 C 171.741 163.658, 137.452 167.089, 95.953 170.872 C 40.181 175.957, 19.457 178.187, 16.500 179.424 C 2.429 185.311, -4.176 203.396, 2.750 217.071 C 5.194 221.895, 11.868 228.069, 62.676 272.500 C 95.972 301.616, 119.883 323.234, 119.926 324.257 C 119.967 325.223, 112.575 358.680, 103.500 398.606 C 94.425 438.531, 87 472.873, 87 474.921 C 87 493.044, 106.856 506.685, 123.739 500.160 C 126.358 499.148, 157.194 481.156, 192.264 460.178 L 256.028 422.035 319.764 460.185 C 354.819 481.168, 385.642 499.160, 388.261 500.168 C 398.335 504.045, 408.478 501.653, 416.659 493.472 C 422.047 488.083, 425 481.338, 425 474.417 C 425 472.646, 417.559 438.416, 408.464 398.349 C 399.369 358.282, 391.832 325.021, 391.714 324.436 C 391.596 323.851, 417.355 300.676, 448.956 272.936 C 500.898 227.341, 506.723 221.924, 509.642 216.500 C 512.358 211.454, 512.881 209.400, 512.936 203.583 C 512.971 199.779, 512.709 196.958, 512.353 197.313 C 511.998 197.669, 510.716 195.832, 509.505 193.230 C 508.294 190.629, 505.772 186.981, 503.902 185.124 C 496.747 178.023, 498.474 178.305, 416.006 170.791 C 374.484 167.007, 340.197 163.594, 339.811 163.206 C 339.426 162.818, 326.434 132.800, 310.941 96.500 C 295.447 60.200, 281.737 28.475, 280.475 26 C 273.724 12.769, 257.753 7.176, 244.434 13.379 M 0.336 205 C 0.336 209.125, 0.513 210.813, 0.728 208.750 C 0.944 206.688, 0.944 203.313, 0.728 201.250 C 0.513 199.188, 0.336 200.875, 0.336 205" stroke="none" fill="#44c4c4" fill-rule="evenodd"/></svg>