<svg xmlns="http://www.w3.org/2000/svg" width="256" height="256" viewBox="0 0 256 256" version="1.1"><path d="M 111.500 6.145 C 87.025 9.265, 61.273 21.588, 42.470 39.177 C 30.572 50.307, 18.577 68.305, 12.098 84.750 L 10.029 90 29.383 90 L 48.736 90 52.618 83.344 C 57.441 75.073, 68.305 63.311, 76.561 57.419 C 84.327 51.877, 97.277 45.805, 106.500 43.380 C 116.297 40.804, 138.703 40.804, 148.500 43.380 C 157.723 45.805, 170.673 51.877, 178.439 57.419 C 186.695 63.311, 197.559 75.073, 202.382 83.344 L 206.264 90 225.617 90 L 244.971 90 242.902 84.750 C 236.423 68.305, 224.428 50.307, 212.530 39.177 C 185.229 13.638, 148.059 1.485, 111.500 6.145 M 20.173 101.424 C -0.164 108.053, -6.455 133.478, 8.533 148.467 C 14.121 154.054, 20.106 156.446, 28.500 156.446 C 40.118 156.446, 49.629 150.427, 54.350 140.089 C 57.228 133.787, 57.228 123.213, 54.350 116.911 C 48.576 104.265, 33.047 97.228, 20.173 101.424 M 219.173 101.424 C 198.836 108.053, 192.545 133.478, 207.533 148.467 C 213.121 154.054, 219.106 156.446, 227.500 156.446 C 239.118 156.446, 248.629 150.427, 253.350 140.089 C 256.228 133.787, 256.228 123.213, 253.350 116.911 C 247.576 104.265, 232.047 97.228, 219.173 101.424 M 12.098 172.250 C 23.974 202.394, 45.345 225.455, 74.500 239.588 C 120.192 261.737, 174.789 253.128, 212.530 217.823 C 224.428 206.693, 236.423 188.695, 242.902 172.250 L 244.971 167 225.617 167 L 206.264 167 202.382 173.656 C 197.559 181.927, 186.695 193.689, 178.439 199.581 C 170.673 205.123, 157.723 211.195, 148.500 213.620 C 143.304 214.986, 137.893 215.460, 127.500 215.460 C 117.107 215.460, 111.696 214.986, 106.500 213.620 C 97.277 211.195, 84.327 205.123, 76.561 199.581 C 68.305 193.689, 57.441 181.927, 52.618 173.656 L 48.736 167 29.383 167 L 10.029 167 12.098 172.250" stroke="none" fill="#2404dc" fill-rule="evenodd"/><path d="" stroke="none" fill="#6bd43f" fill-rule="evenodd"/></svg>