<?xml version="1.0" standalone="no"?>
<!DOCTYPE svg PUBLIC "-//W3C//DTD SVG 20010904//EN"
 "http://www.w3.org/TR/2001/REC-SVG-20010904/DTD/svg10.dtd">
<svg version="1.0" xmlns="http://www.w3.org/2000/svg"
 width="128.000000pt" height="128.000000pt" viewBox="0 0 128.000000 128.000000"
 preserveAspectRatio="xMidYMid meet">

<g transform="translate(0.000000,128.000000) scale(0.100000,-0.100000)"
fill="#000000" stroke="none">
<path d="M540 1119 c-82 -16 -181 -73 -248 -143 -187 -195 -188 -487 -2 -680
199 -207 511 -208 708 -2 195 203 189 501 -14 696 -120 115 -278 161 -444 129z
m255 -119 c83 -32 182 -131 215 -215 34 -85 34 -215 0 -300 -32 -83 -132 -183
-215 -215 -85 -34 -215 -34 -300 0 -83 32 -183 132 -215 215 -33 84 -34 215
-1 297 24 63 100 154 157 189 102 62 241 74 359 29z"/>
<path d="M568 896 c-131 -35 -216 -175 -188 -309 47 -229 352 -290 481 -96
103 155 19 367 -161 408 -56 13 -74 13 -132 -3z"/>
</g>
</svg>
