<?xml version="1.0" standalone="no"?>
<!DOCTYPE svg PUBLIC "-//W3C//DTD SVG 20010904//EN"
 "http://www.w3.org/TR/2001/REC-SVG-20010904/DTD/svg10.dtd">
<svg version="1.0" xmlns="http://www.w3.org/2000/svg"
 width="512.000000pt" height="512.000000pt" viewBox="0 0 512.000000 512.000000"
 preserveAspectRatio="xMidYMid meet">

<g transform="translate(0.000000,512.000000) scale(0.100000,-0.100000)"
fill="#000000" stroke="none">
<path d="M2335 5026 c-331 -63 -606 -221 -810 -466 -492 -592 -389 -1474 226
-1930 l77 -58 -101 -37 c-224 -81 -498 -232 -704 -386 -123 -93 -319 -287
-405 -403 -76 -102 -158 -254 -194 -358 -51 -150 -54 -196 -54 -809 l0 -569
2191 0 2190 0 -3 613 -4 612 -26 96 c-14 52 -40 129 -57 170 -184 433 -651
831 -1219 1038 l-133 48 28 18 c109 70 259 225 350 360 242 361 288 852 117
1253 -169 394 -496 675 -914 784 -104 28 -133 31 -300 34 -126 2 -207 -1 -255
-10z m451 -172 c771 -157 1179 -993 824 -1687 -103 -203 -229 -332 -499 -513
l-193 -129 94 -28 c301 -90 473 -152 613 -221 475 -233 804 -573 922 -952 l28
-89 3 -532 3 -533 -2021 0 -2021 0 3 528 c3 522 4 528 27 597 123 368 464 717
934 956 164 83 257 120 521 206 l199 65 -34 21 c-143 88 -384 254 -432 298
-73 65 -183 207 -236 302 -118 215 -166 497 -126 742 84 517 512 926 1032 985
97 11 265 3 359 -16z"/>
</g>
</svg>
