<svg xmlns="http://www.w3.org/2000/svg" width="256" height="256" viewBox="0 0 256 256" version="1.1"><path d="M 181.093 52.292 C 177.269 53.512, 175.062 55.569, 159.711 72.219 C 149.255 83.559, 148.838 83.886, 146.211 82.779 C 144.699 82.143, 138.413 81.646, 132 81.657 C 122.845 81.672, 119.335 82.104, 114.787 83.771 L 109.075 85.867 91.812 71.283 C 74.808 56.920, 68.928 53.060, 64 53.028 C 52.517 52.952, 41.824 64.199, 43.253 74.850 C 44.275 82.470, 46.718 85.528, 62.315 98.716 C 70.631 105.747, 78.300 112.207, 79.357 113.072 C 81.237 114.610, 81.239 114.762, 79.447 120.072 C 77.628 125.463, 76.889 139.220, 78 147 C 78.484 150.389, 78.088 150.889, 65.500 162.775 C 51.937 175.582, 49.170 179.312, 48.273 186.001 C 47.151 194.368, 54.170 204.565, 62.679 206.928 C 72.087 209.540, 75.960 207.776, 90.399 194.302 C 97.055 188.092, 102.950 183.208, 103.500 183.449 C 118.245 189.907, 125.294 191.470, 136 190.655 C 143.342 190.096, 150.851 188.004, 158.153 184.484 L 161.805 182.723 171.888 191.404 C 182.061 200.162, 188.411 203.942, 193 203.972 C 204.483 204.048, 215.176 192.801, 213.747 182.150 C 212.772 174.879, 210.197 171.461, 197.621 160.741 L 185.391 150.316 186.387 143.107 C 187.617 134.209, 186.300 123.977, 182.819 115.385 L 180.342 109.271 191.725 96.885 C 202.925 84.700, 207.976 76.969, 207.985 72 C 208.008 58.057, 194.361 48.056, 181.093 52.292" stroke="none" fill="#9c8c9c" fill-rule="evenodd"/><path d="" stroke="none" fill="#ac94cc" fill-rule="evenodd"/></svg>