<svg version="1.0" xmlns="http://www.w3.org/2000/svg" width="512.000000pt" height="512.000000pt"
    viewBox="0 0 512.000000 512.000000" preserveAspectRatio="xMidYMid meet">

<g transform="translate(0.000000,512.000000) scale(0.100000,-0.100000)"  stroke="none">
        <path fill="#007692" d="M1601 5004 c-170 -31 -316 -140 -394 -295 -102 -205 -89 -411 40
-606 21 -32 141 -163 267 -290 l229 -233 -101 -102 -102 -103 -177 176 c-98
96 -212 207 -254 246 -133 123 -272 183 -423 183 -269 0 -498 -175 -562 -430
-21 -84 -15 -264 12 -330 48 -120 130 -207 253 -268 73 -36 77 -37 190 -37
112 0 118 1 183 34 225 112 283 381 117 536 -65 61 -108 78 -195 79 -81 1
-114 -15 -134 -64 -30 -71 19 -129 113 -133 64 -3 91 -22 106 -73 10 -35 -6
-93 -36 -126 -49 -56 -170 -75 -250 -38 -63 28 -139 104 -160 158 -12 32 -18
73 -17 127 0 69 5 91 31 147 38 82 96 139 182 180 59 29 75 32 161 32 89 1
100 -1 165 -33 61 -30 100 -64 310 -272 l240 -238 -282 -283 c-156 -156 -283
-287 -283 -291 0 -4 326 -7 725 -7 399 0 725 3 725 7 0 4 -60 67 -132 140
l-133 133 88 87 87 88 133 -133 134 -133 7 727 c3 400 5 728 3 730 -2 2 -132
-126 -290 -283 l-286 -287 -68 64 c-37 36 -146 144 -240 241 -198 202 -229
252 -240 377 -14 167 91 337 240 389 77 27 198 24 259 -6 92 -44 168 -158 168
-249 0 -124 -106 -225 -195 -188 -47 20 -65 52 -65 113 0 74 -30 108 -95 108
-39 0 -51 -5 -70 -27 -71 -82 -24 -265 87 -345 59 -42 112 -56 199 -52 240 13
399 272 319 520 -42 129 -138 242 -253 298 -48 23 -179 52 -230 50 -18 -1 -65
-7 -106 -15z m571 -1481 c43 -43 78 -82 78 -88 0 -13 -152 -165 -165 -165 -13
0 -165 152 -165 165 0 13 152 165 165 165 5 0 45 -35 87 -77z m-400 -400 c43
-43 78 -82 78 -88 0 -7 -39 -49 -86 -95 l-85 -84 -87 87 -87 87 85 85 c46 47
89 85 95 85 5 0 45 -35 87 -77z" />
        <path fill="#00385B" d="M3291 5000 c-164 -35 -312 -179 -356 -345 -51 -198 26 -382 198 -472
45 -24 63 -28 142 -28 96 0 127 10 190 63 73 60 114 166 101 257 -10 64 -41
95 -96 95 -62 0 -90 -33 -90 -106 0 -50 -3 -59 -34 -90 -40 -40 -77 -44 -136
-14 -86 44 -121 154 -84 263 19 57 92 140 148 170 59 32 219 31 289 -1 147
-67 237 -223 224 -386 -11 -130 -38 -169 -306 -438 -129 -131 -240 -238 -245
-238 -6 0 -136 125 -288 277 l-278 278 0 -724 0 -723 129 131 c71 72 133 131
138 131 5 0 47 -38 93 -85 l85 -85 -130 -130 c-71 -71 -127 -131 -125 -134 7
-6 1430 -13 1430 -7 0 3 -127 133 -282 289 l-283 282 240 239 c296 295 314
306 475 306 99 0 110 -2 172 -33 155 -76 237 -232 208 -394 -14 -77 -29 -107
-78 -154 -91 -89 -211 -114 -302 -64 -91 51 -120 151 -61 211 25 25 37 29 84
29 89 0 137 59 107 131 -17 41 -57 59 -132 59 -156 0 -282 -130 -281 -290 1
-163 115 -300 287 -346 143 -38 306 9 425 125 101 99 141 199 141 355 0 168
-50 295 -156 402 -99 99 -274 173 -412 174 -111 0 -268 -58 -367 -138 -28 -21
-146 -134 -263 -251 -116 -116 -218 -211 -225 -211 -7 0 -57 45 -112 100 l-99
100 215 217 c118 120 231 238 251 263 185 233 184 535 -3 760 -98 118 -230
179 -399 185 -58 2 -125 0 -149 -5z m-164 -1472 c46 -46 83 -87 83 -93 0 -16
-153 -165 -170 -165 -9 0 -54 38 -100 86 l-83 85 84 85 c46 46 88 84 94 84 5
0 47 -37 92 -82z m400 -400 c46 -46 83 -89 83 -96 0 -15 -124 -147 -154 -164
-16 -9 -31 2 -102 73 -46 46 -84 88 -84 94 0 10 160 175 170 175 2 0 42 -37
87 -82z" />
        <path fill="#00385B" d="M830 2456 c0 -5 125 -134 278 -287 152 -154 278 -285 280 -292 4 -19
-424 -438 -495 -484 -83 -54 -135 -67 -236 -61 -199 13 -339 148 -354 342 -10
135 43 238 153 298 68 36 122 43 186 24 121 -35 176 -159 103 -232 -19 -19
-35 -24 -75 -24 -83 0 -119 -28 -120 -93 0 -29 7 -45 29 -68 26 -26 36 -29 94
-29 118 0 207 51 262 151 27 48 30 63 30 139 0 71 -4 94 -26 140 -47 100 -141
175 -255 204 -77 20 -134 20 -207 1 -159 -41 -290 -161 -341 -310 -39 -115
-29 -290 25 -415 93 -215 359 -358 599 -321 172 27 245 76 536 363 127 125
235 228 241 228 11 0 196 -184 202 -201 1 -6 -104 -119 -235 -252 -256 -260
-296 -312 -336 -442 -31 -98 -31 -234 -1 -330 93 -294 370 -455 674 -391 228
49 399 297 359 523 -31 183 -161 308 -332 321 -116 8 -216 -45 -275 -145 -21
-37 -28 -62 -31 -127 -4 -77 -3 -84 23 -114 23 -27 34 -32 70 -32 36 0 48 5
69 31 21 24 26 41 26 83 0 59 16 88 59 106 63 26 149 -18 185 -95 24 -50 22
-143 -3 -199 -11 -25 -42 -68 -69 -95 -65 -65 -131 -86 -245 -78 -136 9 -238
81 -303 212 -26 55 -29 69 -29 165 0 101 2 109 35 175 30 60 68 104 264 303
126 127 234 232 240 232 6 0 135 -124 286 -275 151 -151 278 -275 282 -275 5
0 8 325 8 722 l0 723 -135 -135 -135 -135 -85 85 c-47 46 -85 89 -85 95 0 5
57 67 127 137 l128 128 -535 0 c-294 0 -619 3 -722 7 -104 3 -188 3 -188 -1z
m943 -294 l88 -89 -84 -86 c-46 -48 -88 -87 -93 -87 -12 0 -174 162 -174 175
0 10 160 175 170 175 3 0 45 -40 93 -88z m402 -402 l90 -90 -85 -85 c-47 -47
-89 -85 -95 -85 -13 0 -175 162 -175 175 0 10 160 175 170 175 3 0 46 -40 95
-90z" />
        <path fill="#007692" d="M2846 2453 c-4 -4 53 -67 126 -140 l133 -133 -85 -85 -85 -85 -131
131 -131 131 -6 -39 c-4 -21 -7 -351 -7 -733 l0 -695 290 290 291 290 233
-235 c201 -204 237 -245 267 -305 32 -66 34 -75 34 -175 0 -93 -3 -112 -27
-162 -114 -244 -446 -293 -585 -86 -98 148 -33 338 117 338 61 0 90 -35 90
-107 0 -49 4 -59 34 -89 44 -44 83 -45 128 -5 33 29 33 31 33 118 0 78 -3 93
-27 134 -83 142 -250 192 -400 122 -110 -52 -180 -142 -214 -275 -25 -97 -1
-230 58 -327 36 -59 117 -139 174 -171 61 -35 188 -70 253 -70 80 1 217 37
287 76 119 66 220 194 266 336 30 91 29 249 -1 338 -46 133 -90 190 -338 441
-128 129 -233 240 -233 245 0 5 45 54 100 109 l100 100 227 -226 c250 -247
278 -271 370 -318 86 -43 162 -61 258 -61 150 0 289 57 405 166 209 198 227
550 38 750 -105 111 -218 158 -363 152 -112 -5 -195 -40 -269 -114 -74 -74
-101 -139 -101 -244 0 -73 4 -92 27 -136 61 -116 202 -185 315 -155 81 22 111
110 57 165 -22 21 -36 26 -76 26 -27 0 -62 7 -77 15 -60 30 -65 117 -10 180
69 79 194 87 296 18 101 -67 140 -150 130 -278 -11 -145 -80 -245 -215 -308
-60 -28 -77 -32 -157 -32 -85 0 -96 2 -167 37 -67 34 -102 64 -307 264 -127
124 -231 231 -231 238 0 6 126 137 279 290 154 154 278 283 275 288 -6 10
-1438 11 -1448 1z m685 -282 c44 -44 79 -86 79 -93 0 -15 -150 -168 -165 -168
-13 0 -165 152 -165 165 0 9 160 175 168 175 3 0 40 -36 83 -79z m-399 -408
c43 -43 78 -82 78 -88 0 -16 -153 -165 -171 -165 -8 0 -51 36 -94 81 l-78 80
84 85 c46 46 88 84 94 84 5 0 45 -35 87 -77z" />
    </g>
</svg>